<?xml version="1.0" encoding="utf-8"?>
<!-- Generator: Adobe Illustrator 19.2.0, SVG Export Plug-In . SVG Version: 6.00 Build 0)  -->
<!DOCTYPE svg PUBLIC "-//W3C//DTD SVG 1.1//EN" "http://www.w3.org/Graphics/SVG/1.1/DTD/svg11.dtd">
<svg version="1.1" xmlns="http://www.w3.org/2000/svg" xmlns:xlink="http://www.w3.org/1999/xlink" x="0px" y="0px"
	 viewBox="0 0 148.1 72.6" style="enable-background:new 0 0 148.1 72.6;" xml:space="preserve">
<style type="text/css">
	.st0{fill:#005DAA;}
	.st1{fill:#E44126;}
</style>
<g id="Layer_1">
	<path class="st0" d="M69.5,16.1h4.1l2.8,6.7h0.1c0-1,0-2,0.1-3.1l0.6-3.6h4.1l-1.9,12.3h-4.1l-2.8-6.5h-0.1c0,0.8,0,1.6-0.1,2.4
		l-0.6,4.1h-4.1L69.5,16.1z"/>
	<polygon class="st0" points="58.9,16.1 49.6,16.1 49,19.5 51.7,19.5 50.2,28.2 54.5,28.2 56,19.5 58.3,19.5 	"/>
	<polygon class="st0" points="58.9,16.1 49.6,16.1 49,19.5 51.7,19.5 50.2,28.2 54.5,28.2 56,19.5 58.3,19.5 	"/>
	<polygon class="st0" points="67.7,19.2 68.2,16.2 60,16.2 59.5,19.2 59.5,19.2 58,28.3 66.3,28.3 66.9,25.1 63,25.1 63.2,23.7 
		66.6,23.7 67.1,20.6 63.7,20.6 63.9,19.2 	"/>
	<path class="st0" d="M88.9,28.3h4.2L91,16.1h-4.8l-6.1,12.2h4.6l0.5-1.5h3.6L88.9,28.3z M86.1,24.1l1.8-5.3l0.6,5.3H86.1z"/>
	<path class="st0" d="M113.3,28.3h4.2l-2.1-12.2h-4.8l-6.1,12.2h4.6l0.5-1.5h3.6L113.3,28.3z M110.5,24.1l1.8-5.3l0.6,5.3H110.5z"/>
	<path class="st0" d="M105.5,18.9c0,0-1.4-3-5.7-3c-4.3,0-6.9,3.1-6.9,6.9c0,3.8,2.7,5.9,6.5,5.9c0,0,3.3-0.2,4.6-1.6l1.2-5.6h-6
		v2.2h1.5c0,0,0.3,2-1.5,2c-1.9,0-2.2-2.3-2.1-3.7c0.1-1,0.8-3.1,2.8-3.1c0,0,1.1-0.1,1.7,1.2L105.5,18.9z"/>
	<path class="st0" d="M106,30.6h4.1l2.8,6.7h0.1c0-1,0-2.1,0.1-3.1l0.6-3.6h4.1l-1.9,12.2h-4.1l-2.8-6.4h-0.1c0,0.8,0,1.6-0.1,2.4
		l-0.6,4h-4.1L106,30.6z"/>
	<path class="st0" d="M125.3,42.7h4.1l-2.1-12.1h-4.8l-6,12.1h4.6l0.5-1.4h3.5L125.3,42.7z M122.6,38.5l1.8-5.2l0.5,5.2H122.6z"/>
	<path class="st0" d="M51.2,30.6h4.1l2.8,6.7h0.1c0-1,0-2.1,0.1-3.1l0.6-3.6h4.1L61,42.7H57l-2.8-6.4h-0.1c0,0.8,0,1.6-0.1,2.4
		l-0.6,3.9h-4.1L51.2,30.6z"/>
	<polygon class="st0" points="132,30.6 136.3,30.6 135,39.2 138.6,39.2 138,42.7 130.2,42.7 	"/>
	<path class="st0" d="M70.5,42.8h4.1l-2.1-12.2h-4.8l-6,12.2h4.6l0.5-1.5h3.5L70.5,42.8z M67.7,38.5l1.8-5.2l0.6,5.2H67.7z"/>
	<path class="st0" d="M85.2,31.7c0,0-1.6-1.4-4.6-1.4c-3,0-4.4,1.8-4.4,3.5c0,1.7,1,3.2,2.2,3.7c1.2,0.6,2.4,0.8,2.4,1.8
		c0,1.1-3.4,0.9-4.7-1.3L74.6,41c0,0,1.3,2.1,4.8,2.1c3.5,0,5.4-2.6,5.4-4.6c0-2-2.1-2.8-2.1-2.8s-2.5-0.4-2.5-1.4
		c0-1,1.7-1.4,3.3,0L85.2,31.7z"/>
	<polygon class="st0" points="91.1,30.6 86.9,30.6 84.8,42.8 89.1,42.8 	"/>
	<path class="st0" d="M101.8,31.8c-2.5-2.1-6.5-1.6-9,1.1c-2.5,2.7-2.5,6.5,0,8.6c2.5,2.1,6.5,1.6,9-1.1
		C104.3,37.8,104.3,33.9,101.8,31.8 M99.6,37.2c-0.6,1.4-1.9,2.2-3.1,1.8c-1.1-0.4-1.6-1.9-1-3.3c0.6-1.4,2-2.2,3.1-1.8
		C99.7,34.3,100.1,35.8,99.6,37.2"/>
	<path class="st1" d="M25.3,6.2L13.6,18.1c0,0-0.6,0.6-0.2,1.4c0.1,0.3,0.7,0.7,1.1,0.7h6.9c0,0,1.5,0.2,0.9,1.8l-5.6,9.7
		c0,0-0.5,0.6-1.1,0.5c-0.5-0.1-1-0.5-1-1.1v-2.7c0,0-0.2-2.1-1.5-3.5c-0.7-0.8-1.8-1.4-3.3-1.4H6.5c0,0-1.6-0.1-1.6-1.5V6.7
		c0,0-0.1-1.9,1.9-1.9h29.7c0,0,2-0.1,2,1.7v15.4c0,0-0.1,1.5-1.6,1.5h-3.1c0,0-4.9,0.1-4.9,4.9v7.9c0,0-0.1,1.5-1.8,1.5h-15
		c0,0-2.5,0.1-2.5,2.4c0,0,0.2,2.4,2.4,2.4h15.2c2.6,0,6.5-2,6.5-6.4v-6c0,0-0.1-1.9,2.3-1.9c0,0,2.4,0.2,4.5-1.2
		c1.4-1,2.7-2.8,2.7-5.4V6.1c0,0,0-1.4-1-3.1C41.3,1.5,39.5,0,36.9,0H6.4C6.4,0,0,0.3,0,6.9v14.7c0,0-0.2,5.7,5.8,6.7h1.8
		c0,0,2-0.2,2,2.6c0,0-0.2,5,4.9,6.1c4.2,0.9,6.2-2.9,6.2-2.9l9.5-16.4c0,0,0.4-0.8,0-1.5c-0.3-0.6-0.8-0.9-1.6-0.8H23
		c0,0-1.5-0.3-1.1-1.7L25.3,6.2z"/>
	<path class="st1" d="M28.9,46.2c0,1.3-0.9,2.4-2.2,2.4H16.7c-1.2,0-2.2-1.1-2.2-2.4v-0.1c0-1.3,0.9-2.4,2.2-2.4h10.1
		C27.9,43.8,28.9,44.9,28.9,46.2L28.9,46.2z"/>
	<path class="st1" d="M42.2,66.5L42.2,66.5c0.1,0,0.1,0,0.2-0.1c0,0,0,0,0,0c0,0,0.1,0.1,0.2,0.1c0,0,0.1,0,0.2,0c0.1,0,0.1,0,0.2,0
		l0.1,0l0-0.1c0-0.1,0.1-0.4,1-0.8c0.5-0.3,1.1-0.5,1.6-0.9c3-2,4.8-3.2,5.6-3.7l0,0c1-1.2,1.4-1.6,1.4-1.7c0.6-0.8,0.9-1.4,0.9-1.9
		c0-0.3-0.1-0.6-0.4-0.9c-0.3-0.3-0.6-0.4-0.9-0.4h0c0,0-0.1,0-0.1,0c0,0,0,0,0,0c0,0-0.1,0-0.2,0c-0.1,0-0.2,0-0.3,0h0
		c0,0-0.1,0-0.2,0c-0.1,0-0.1,0-0.1,0c0,0-0.1,0-0.2,0c-0.1,0-0.2,0-0.2,0c-0.1,0-0.5,0.1-1.2,0.2c-0.3,0.1-0.5,0.1-0.6,0.1
		c0,0-0.1,0-0.1,0c-0.1,0-0.2,0-0.3,0.1c0.1-0.1,0.4-0.3,0.7-0.6c0.5-0.4,0.9-0.6,1.2-0.7l0,0c0.5-0.5,0.9-0.9,1.2-1.1
		c1.1-1,1.2-1.3,1.2-1.5c0-0.2-0.2-0.4-0.5-0.5c-0.3-0.1-0.6-0.2-0.7-0.2h0c0,0-0.1,0-0.2,0c-0.1,0-0.2,0-0.2,0l-1.5,0.1
		c0,0-0.1,0-0.2,0c-0.1,0-0.1,0-0.1,0s0,0,0,0c-0.1,0-0.1,0-0.2,0c-0.3,0-0.9,0.1-2,0.3c-0.7,0.1-1,0.2-1.2,0.2c0,0-0.1,0-0.2,0l0,0
		l0,0c-0.1,0.1-0.3,0.1-0.6,0.2c-0.4,0.1-0.6,0.2-0.7,0.2c0,0,0,0-0.1,0c-0.1,0-0.1,0-0.2,0h0c-0.1,0-0.1,0-0.2,0.1
		c-0.1,0-0.2,0-0.2,0h0l0,0c-0.2,0.1-0.3,0.2-0.4,0.3h0c-0.1,0-0.1,0-0.2,0c-0.1,0-0.1,0.1-0.1,0.3c0,0,0,0.1,0.2,0.4
		c0.2,0.2,0.2,0.3,0.2,0.4l0,0.1l0.1,0c0,0,0.1,0,0.1,0c0.1,0,0.1,0,0.2,0h0c0.4,0,0.8-0.2,1.3-0.5c0,0,0.1,0,0.1-0.1c0,0,0,0,0,0
		l0,0l0,0c0.2-0.1,0.3-0.2,0.4-0.2c0,0,0.1,0,0.1,0c0,0,0.1,0,0.1,0c0,0.3,0,0.4,0,0.5l-2.7,8.6l0,0.7l0,0c0,0,0,0,0,0
		c-0.1,0.1-0.2,0.2-0.3,0.3l0,0l0,0c0,0.1,0,0.2,0.1,0.3c0,0.1,0,0.2,0,0.3c0,0.3-0.1,0.4-0.1,0.4c-0.2,0.1-0.4,0.2-0.5,0.2
		c-0.1,0-0.2,0.1-0.6,0.3c-0.4,0.3-0.5,0.4-0.5,0.5c0,0.1,0,0.3,0.2,0.4C41.9,66.5,42,66.5,42.2,66.5 M46.9,55.9
		c0.1-0.2,0.1-0.3,0.1-0.4c0.2-0.2,0.3-0.5,0.4-0.8c0.1-0.4,0.1-0.6,0.2-0.7c0.1,0,0.2-0.1,0.3-0.3c0.1-0.2,0.2-0.4,0.2-0.5
		c0,0,0,0,0,0c0.8-0.2,1.3-0.3,1.4-0.3c0,0,0.1,0,0.2-0.1c0.1,0,0.1,0,0.1,0l0-0.1v0.1c0,0,0.1,0,0.2,0c0.1,0,0.2,0,0.2,0h0
		c0.1,0,0.2,0,0.2,0h0c0.1,0,0.1,0,0.2,0l0,0h0c0,0,0.1,0,0.1,0l0.1,0c0,0,0,0,0.1,0c-0.5,0.7-1.2,1.4-2.2,2
		c-0.2,0.1-0.6,0.4-1.2,0.9c-0.5,0.4-0.7,0.5-0.9,0.6C46.9,56.1,46.9,56,46.9,55.9 M45.1,61.1c0.3-0.5,0.6-1.4,0.9-2.6
		c0,0,0.1,0,0.3-0.1c0.2-0.1,0.4-0.2,0.5-0.4c0.1,0,0.3-0.1,1.1-0.5c1.4-0.4,2.2-0.7,2.4-0.7c0,0,0.1,0.1,0.1,0.1c0.1,0,0.1,0,0.2,0
		c0.1,0,0.2,0,0.2,0c0,0,0.1,0,0.1,0c0.1,0,0.1,0,0.2,0h0l0.2,0c0.1,0,0.3,0.1,0.5,0.2c0.2,0.1,0.3,0.3,0.3,0.4
		c0,0.4-0.4,1.2-2.3,3.2l-2.2,1.6c-0.8,0.6-1.6,1.1-2.5,1.6v0l-0.1-0.2c0-0.1-0.1-0.2-0.1-0.4c0-0.4,0-0.7,0-0.9l0-0.1
		c0-0.1,0-0.1,0-0.2c0,0,0-0.1,0-0.1c0-0.1,0.1-0.1,0.1-0.3l0,0L45.1,61.1z"/>
	<path class="st1" d="M53.2,59.9L53.2,59.9c-0.4,0.6-0.5,0.7-0.5,0.8l0,0c0,0,0,0.1-0.2,0.4c-0.2,0.2-0.2,0.4-0.2,0.6
		c-0.2,0.4-0.3,0.6-0.3,0.8l0,0.4c0,0.1-0.1,0.1-0.1,0.2c0,0.1,0,0.1,0.1,0.2c0,0.1,0,0.2,0,0.4c0,0.3,0.3,0.8,0.3,0.8
		c0.5,0.3,1,0.5,1.4,0.7c0.1,0,0.1,0.1,0.2,0.1c0,0,0,0,0.1,0c0.5-0.1,0.9-0.2,1-0.2c0,0,0.1,0,0.3-0.1c0.1-0.1,0.2-0.1,0.1-0.1
		c0,0,0,0,0.1,0c0,0,0.1,0,0.1,0c0.1,0,0.1,0,0.8-0.5c0.5-0.4,0.9-0.6,1.1-1c0.2-0.4,0.2-0.4,0.2-0.4c0-0.1,0-0.2-0.1-0.2
		c-0.1-0.1-0.2-0.1-0.3-0.1h0c-0.1,0-0.2,0-0.3,0.1c-0.1,0.1-0.2,0.1-0.2,0.1l0,0c-0.7,0.5-1.2,0.9-1.4,0.9l0,0
		c-0.1,0.1-0.2,0.2-0.4,0.2h0c0,0-0.1,0-0.1,0l0,0c-0.1,0-0.2,0.1-0.3,0.1c0,0-0.1,0-0.1,0c-0.1,0-0.1,0-0.2,0l-0.3,0
		c-0.1,0-0.2-0.1-0.4-0.2c-0.1-0.1-0.2-0.2-0.2-0.3c0,0,0.1-0.2,0.8-0.7c0.8-0.7,1.6-1.4,2.5-2.1l0,0c0.6-0.9,0.8-1,0.9-1.1l0-0.2
		c0,0,0,0,0,0c0.2-0.4,0.4-0.7,0.5-0.9l0,0l0,0c0-0.1-0.1-0.3-0.1-0.4c-0.1-0.3-0.2-0.7-0.5-0.7c0,0-0.1,0-0.1,0c0,0-0.1,0-0.1,0
		c0,0-0.5,0-0.5,0h0l0,0c-0.6,0.2-1,0.4-1.3,0.6c-0.4,0.4-0.5,0.4-0.5,0.4l0,0l0,0c0,0-0.1,0.1-0.7,0.7
		C53.5,59.7,53.3,59.9,53.2,59.9 M54.2,60.6c0.2-0.2,0.6-0.6,1.1-1.2c0.4-0.3,0.8-0.5,1-0.6c0,0.1-0.1,0.1-0.1,0.2
		c-0.1,0.1-0.2,0.2-0.2,0.3c-0.1,0.1-0.2,0.3-0.3,0.4c0,0.1-0.1,0.2-0.4,0.5c-0.2,0.2-0.4,0.4-0.5,0.6c-0.6,0.4-1.1,0.8-1.4,1
		C53.7,61.3,53.9,60.9,54.2,60.6"/>
	<path class="st1" d="M58.5,61.1l0.3,0.1c0.1,0.1,0.2,0.2,0.3,0.2c0,0,0.1,0,0.1,0c0,0,0.1,0,0.1,0l0,0l0,0c0.6-0.4,1.1-0.7,1.5-0.8
		c-0.2,0.3-0.2,0.5-0.2,0.5c-0.1,0.5-0.2,1.1-0.4,1.8c0,0,0,0.1-0.1,0.7c0,0.2-0.3,0.6-0.3,0.6h0c-0.1,0.1-0.1,0.1-0.1,0.2l0,0.1
		c0,0,0,0.2,0,0.3c0,0,0.3,0.2,0.4,0.2c0.2,0.1,0.2,0.1,0.2,0.1l0,0h0c0.1,0,0.1,0,0.3-0.1c0.1,0,0.2,0,0.2,0h0l0,0
		c0.1-0.1,0.2-0.2,0.2-0.2l0,0l0-0.1c0-0.1,0-0.2,0-0.3l0,0l0,0c0-0.1,0-0.2,0-0.2c0,0,0,0,0,0c0.1-0.1,0.1-0.1,0.1-0.2
		c0,0,0-0.1-0.1-0.2c0-0.1,0-0.1,0-0.2c0-0.4,0.1-0.9,0.4-1.7c0.2-0.7,0.4-1.3,0.4-1.6c0.1-0.1,0.3-0.2,0.5-0.3c0,0,0.1,0.1,0.1,0.1
		c0,0,0,0,0.5-0.1c0.3-0.1,0.5-0.1,0.6-0.2c0.2-0.1,1-0.3,1-0.3c0,0,0,0,0,0c0.1,0,0.3-0.1,0.4-0.2c0.2-0.1,0.3-0.1,0.3-0.1l0.1,0
		l0-0.1c0-0.2,0-0.3,0-0.3l0-0.1l-0.1,0c-0.1,0-0.3,0-0.6,0c-0.1,0-0.1,0-0.3,0.1c-0.1,0-0.1,0-0.1,0c0-0.1-0.1-0.1-0.1-0.1
		c-0.2,0-0.4,0.1-0.7,0.2c-0.3,0.1-0.5,0.1-0.6,0.2c0,0-0.1-0.1-0.1-0.1c0,0-0.1,0-0.2,0.1c-0.2,0-0.4,0-0.4,0c1-3.9,1.6-6.1,2-6.6
		c0.1-0.1,0.1-0.2,0.2-0.3c0.1-0.2,0.1-0.3,0.1-0.4c0,0,0-0.1-0.1-0.2c0-0.1-0.1-0.2-0.1-0.2c0,0-0.3-0.2-0.5-0.3
		c-0.1-0.1-0.3-0.1-0.4-0.1h-0.1c-0.1,0-0.2,0.1-0.4,0.2L63.1,51c-0.1,0.1-0.3,0.4-0.3,0.5c0,0.1-0.1,0.2-0.1,0.3l0,0.1l0,0.1
		l0.1,0.3c0,0-0.1,0.1-0.1,0.2c0,0,0,0.1,0,0.1c-0.1,0.6-0.2,1.2-0.4,1.7l-0.4,1.4c-0.2,0.7-0.3,1.3-0.4,1.5l0,0v0
		c0,0.5-0.1,0.7-0.2,0.8l0,0.2c0,0,0,0.1,0,0.1c0,0,0,0.1,0.1,0.1c0,0.1-0.1,0.2-0.1,0.3c0,0.2-0.1,0.3-0.2,0.3
		c-0.1,0.1-0.2,0.1-0.3,0.1c0,0-0.1,0-0.1,0h0c0,0-0.1,0-0.1,0.1c0,0,0,0,0,0l0,0l-0.2,0.1c-0.2,0.1-0.4,0.2-0.4,0.2
		c-0.5,0.2-0.9,0.3-1,0.4c-0.3,0.1-0.4,0.3-0.5,0.6c0,0.1,0,0.1,0.1,0.4C58.5,61,58.5,61.1,58.5,61.1"/>
	<path class="st1" d="M64.1,60.3c0,0,0,0.1,0.1,0.3c0.1,0.2,0.6,0.5,0.7,0.5h0c0,0,0.1,0,0.1,0c0,0,0.1,0,0.1,0h0l0,0
		c0.6-0.4,1.1-0.7,1.5-0.8c-0.1,0.4-0.2,0.5-0.2,0.5l-0.1,0l0,0.1c-0.1,0.5-0.2,1.1-0.4,1.8c0,0,0,0.1-0.1,0.7
		c0,0.2-0.3,0.6-0.3,0.6l0,0c-0.1,0.1-0.1,0.1-0.1,0.2l0,0.1c0,0,0,0.2,0,0.3l0.1,0.1c0,0,0,0,0.1,0c0.1,0,0.1,0.1,0.2,0.1
		c0.2,0.1,0.2,0.1,0.2,0.1l0,0h0c0.1,0,0.1,0,0.3-0.1c0.1,0,0.2,0,0.2,0l0,0l0,0c0.1-0.1,0.2-0.2,0.2-0.2l0,0l0-0.1
		c0-0.1,0-0.2,0-0.3v0v0c0-0.1,0-0.1,0-0.2c0,0,0,0,0,0c0.1-0.1,0.1-0.1,0.1-0.2c0,0,0-0.1-0.1-0.2c0-0.1,0-0.1,0-0.2
		c0-0.4,0.1-0.9,0.4-1.7c0.2-0.7,0.4-1.3,0.4-1.6c0.1-0.1,0.3-0.2,0.5-0.3c0,0,0.1,0.1,0.1,0.1h0c0,0,0,0,0.5-0.1
		c0.3-0.1,0.5-0.1,0.6-0.2c0.2-0.1,0.5-0.1,0.5-0.1c0.2-0.1,0.3-0.2,0.4-0.2l0.1-0.1c0,0,0,0,0-0.1c0.1,0,0.3-0.1,0.4-0.2
		c0.2-0.1,0.3-0.1,0.3-0.1l0.1,0l0-0.1c0-0.2,0-0.3,0-0.3l0-0.1l-0.1,0c-0.1,0-0.3,0-0.6,0c-0.1,0-0.1,0-0.3,0.1c-0.1,0-0.1,0-0.1,0
		c0-0.1-0.1-0.1-0.1-0.1c-0.2,0-0.4,0.1-0.7,0.2c-0.3,0.1-0.5,0.1-0.6,0.2c0,0-0.1,0-0.1,0c0,0-0.1,0-0.2,0.1c-0.2,0-0.4,0-0.4,0
		c1-3.9,1.6-6.1,2-6.6c0.1-0.1,0.1-0.2,0.2-0.3c0.1-0.2,0.1-0.3,0.1-0.4c0,0,0-0.1-0.1-0.2c0-0.1-0.1-0.2-0.1-0.2
		c0,0-0.3-0.2-0.5-0.3c-0.1-0.1-0.3-0.1-0.4-0.1h-0.1c-0.1,0-0.2,0.1-0.4,0.2l-0.1,0.1c-0.1,0.1-0.2,0.1-0.2,0.1
		c0,0-0.1,0.3-0.1,0.3c0,0.1-0.1,0.2-0.1,0.3l0,0.1l0,0.1l0.1,0.3c-0.1,0.1-0.1,0.1-0.1,0.2c0,0,0,0.1,0,0.1
		c-0.1,0.7-0.2,1.2-0.4,1.7l-0.4,1.4c-0.2,0.8-0.3,1.3-0.4,1.5l0,0l0,0c0,0.5-0.1,0.7-0.2,0.8l0,0.2c0,0,0,0.1,0,0.1
		c0,0,0,0.1,0,0.1c0,0.1-0.1,0.2-0.1,0.3c0,0.2-0.1,0.3-0.2,0.3C66.7,59,66.6,59,66.5,59c0,0-0.1,0-0.1,0h0c0,0-0.1,0-0.1,0.1
		c0,0,0,0,0,0l0,0L66,59.2c-0.2,0.1-0.4,0.2-0.4,0.2c-0.5,0.2-0.9,0.3-1,0.4C64.3,59.9,64.1,60.1,64.1,60.3"/>
	<path class="st1" d="M71,61.2c-0.2,0.4-0.3,0.6-0.3,0.8l0,0.4c0,0.1-0.1,0.1-0.1,0.2c0,0.1,0,0.1,0.1,0.2c0,0.1,0,0.3,0,0.4
		c0.1,0.2,0.3,0.8,0.3,0.8c0.5,0.3,1,0.5,1.4,0.7c0.1,0,0.1,0.1,0.2,0.1c0,0,0,0,0.1,0c0.5-0.1,0.9-0.2,1-0.2c0.1,0,0.1,0,0.3-0.1
		c0.1-0.1,0.2-0.1,0.2-0.1s0,0,0.1,0c0,0,0.1,0,0.1,0c0,0,0.1,0,0.8-0.5c0.5-0.4,0.9-0.7,1.1-1c0.2-0.4,0.2-0.4,0.3-0.4
		c0-0.1,0-0.2-0.1-0.2C76.2,62.1,76.1,62,76,62h0c-0.1,0-0.2,0-0.3,0.1c-0.1,0.1-0.2,0.1-0.2,0.1l0,0c-0.7,0.5-1.2,0.9-1.4,0.9l0,0
		c-0.1,0.1-0.2,0.2-0.4,0.2c0,0-0.1,0-0.1,0l0,0c-0.1,0-0.2,0.1-0.3,0.1c0,0-0.1,0-0.1,0c-0.1,0-0.1,0-0.2,0l-0.3,0
		c-0.1,0-0.2-0.1-0.4-0.2C72,63.2,72,63,72,63c0,0,0.1-0.2,0.8-0.7c0.8-0.7,1.6-1.4,2.5-2.1l0,0c0.6-0.9,0.9-1.3,0.8-1.3
		c0.2-0.4,0.4-0.7,0.5-0.9l0,0l0,0c0-0.1-0.1-0.3-0.1-0.4c-0.1-0.3-0.2-0.7-0.5-0.7c0,0-0.1,0-0.1,0c0,0-0.1,0-0.1,0
		c0,0-0.5,0-0.5,0h0l0,0c-0.6,0.2-1,0.4-1.3,0.6c-0.4,0.4-0.5,0.4-0.5,0.4l0,0l0,0c-0.1,0-0.2,0.1-0.7,0.7c-0.4,0.6-0.7,0.7-0.8,0.8
		l0,0l0,0c-0.4,0.6-0.4,0.7-0.5,0.7l0,0c0,0,0,0.1-0.2,0.4C71,60.8,71,61,71,61.2 M72.9,60c0.2-0.3,0.6-0.6,1.1-1.2
		c0.4-0.3,0.8-0.5,1-0.7c0,0.1-0.1,0.1-0.1,0.2c-0.1,0.1-0.2,0.2-0.2,0.3c-0.1,0.1-0.2,0.3-0.3,0.4c0,0.1-0.1,0.2-0.4,0.5
		c-0.2,0.2-0.4,0.4-0.5,0.6c-0.6,0.4-1.1,0.8-1.4,1C72.4,60.7,72.7,60.3,72.9,60"/>
	<path class="st1" d="M77.5,64.9L77.5,64.9L77.5,64.9c0.2,0,0.4-0.1,0.6-0.1c0.2-0.1,0.4-0.2,0.5-0.3l0.1-0.1c0,0,0-0.1,0-0.2
		L78.5,64c-0.1,0-0.1-0.2-0.1-0.4c0-0.3,0.1-0.7,0.2-1.1l0.3-0.8l0-0.1l0-0.1c0.1-0.2,0.2-0.3,0.2-0.4l0-0.3c0.4-1,1.1-1.8,1.9-2.5
		l0,0l0,0c0-0.1,0.2-0.2,0.2-0.2h0c0,0,0.1,0,0.3-0.2c0.2-0.1,0.2-0.1,0.2-0.1c0,0,0.2-0.1,0.2-0.1v0c0,0,0-0.1,0.2-0.1
		c0.1-0.1,0.2-0.1,0.3-0.1h0l0,0l0.1,0.1l-0.1,0.1l0,0.1c0,0.1,0,0.1,0.1,0.2c0,0,0,0,0,0c0,0-0.1,0.1-0.1,0.1L82.5,58l-0.1,0.2
		l0.1,0.4c0,0,0,0.1,0,0.2c0,0.3-0.2,0.6-0.4,0.9l0,0l0,0c0,0.4,0.1,0.9,0.4,0.9c0.2,0,0.4-0.1,0.9-1c0,0,0.2-0.3,0.2-0.3
		c0.1-0.2,0.1-0.2,0.1-0.3c0.2-0.1,0.2-0.2,0.2-0.3c0,0,0-0.1,0-0.1h0c0,0,0-0.4,0-0.4c0-0.1,0-0.3,0.1-0.4c0.1-0.2,0.1-0.2,0.1-0.2
		l0.1,0c0-0.4,0-0.7-0.1-0.9c0-0.1-0.1-0.1-0.3-0.3c-0.2-0.2-0.6-0.2-0.6-0.2c-0.1,0-0.2-0.1-0.3-0.1c-0.1,0-0.3,0.1-0.4,0.2l0,0
		L82,56.5l0,0.1c0,0.1-0.1,0.2-0.4,0.3c-0.2,0.1-0.4,0.2-0.4,0.3c0,0,0,0,0,0c-0.1,0-0.1,0-0.1,0.1l-0.1,0.1l-0.4,0.6
		c0,0,0,0.1-0.2,0.1l-0.1,0l0,0.1c0,0.1-0.2,0.3-0.4,0.5c-0.1,0.1-0.1,0.1-0.2,0.2c0.1-0.4,0.3-0.8,0.3-1.2l0,0l0,0
		c-0.1-0.2-0.2-0.3-0.2-0.4l-0.2,0c-0.1,0-0.1,0-0.2,0h0c-0.4,0-0.5,0-0.5,0.1l0,0.1l0,0c-0.5,2.2-0.6,2.7-0.7,2.7l0,0l0,0.3
		c-0.2,0.5-0.2,0.7-0.3,0.8l0,0.1v0c0,0-0.2,0.5-0.2,0.6c-0.1,0.2-0.1,0.3-0.1,0.5c0,0.1,0,0.3-0.1,0.5c-0.1,0.3-0.1,0.5-0.1,0.6
		v0.1c-0.1,0.1-0.2,0.2-0.2,0.3l0,0.3l0,0C77.4,64.8,77.5,64.8,77.5,64.9"/>
	<path class="st1" d="M141.5,62.8L141.5,62.8L141.5,62.8c0.2,0,0.4,0,0.6-0.1c0.2-0.1,0.4-0.2,0.5-0.3l0.1-0.1c0,0,0-0.1,0-0.2
		l-0.1-0.1c-0.1,0-0.1-0.2-0.1-0.4c0-0.3,0.1-0.7,0.2-1.1l0.3-0.8l0-0.1l0-0.1c0.1-0.2,0.2-0.3,0.2-0.4l0-0.3c0.4-1,1.1-1.8,1.9-2.5
		l0,0l0,0c0-0.1,0.2-0.2,0.2-0.2h0c0,0,0.1,0,0.3-0.2c0.2-0.1,0.2-0.1,0.2-0.1c0,0,0.2-0.1,0.2-0.1v0c0,0,0-0.1,0.2-0.1
		c0.1,0,0.2-0.1,0.3-0.1h0l0,0l0.1,0.1l-0.1,0.1l0,0.1c0,0.1,0,0.1,0.1,0.2c0,0,0,0,0,0c0,0-0.1,0.1-0.1,0.1l-0.1,0.1l-0.1,0.2
		l0.1,0.3c0,0.1,0,0.1,0,0.2c0,0.3-0.2,0.6-0.5,0.9l0,0l0,0c0,0.4,0.1,0.9,0.4,0.9c0.2,0,0.4-0.1,0.9-1c0,0,0.2-0.3,0.2-0.3
		c0.1-0.2,0.1-0.2,0.1-0.3c0.2-0.1,0.2-0.2,0.2-0.3c0,0,0-0.1,0-0.1h0c0,0,0-0.4,0-0.4c0-0.1,0-0.3,0.1-0.4c0.1-0.2,0.1-0.2,0.1-0.2
		l0,0c0-0.4,0-0.7-0.1-0.9c0-0.1-0.1-0.1-0.3-0.3c-0.2-0.2-0.6-0.2-0.6-0.2c-0.1,0-0.2-0.1-0.3-0.1c-0.1,0-0.3,0.1-0.4,0.2l0,0
		l-0.4,0.1l0,0.1c0,0.1-0.1,0.2-0.4,0.3c-0.2,0.1-0.4,0.2-0.4,0.3h0c-0.1,0-0.1,0-0.1,0.1l-0.1,0.1l-0.4,0.6c0,0,0,0.1-0.2,0.1
		l-0.1,0l0,0.1c0,0.1-0.2,0.3-0.4,0.5c-0.1,0.1-0.1,0.1-0.2,0.2c0.1-0.4,0.3-0.8,0.3-1.2l0,0l0,0c-0.1-0.2-0.2-0.3-0.2-0.4l-0.2,0
		c-0.1,0-0.1,0-0.2,0h0c-0.4,0-0.5,0-0.5,0.1l0,0.1l0,0c-0.5,2.2-0.6,2.7-0.7,2.7l0,0l0,0.3c-0.2,0.5-0.2,0.7-0.3,0.8l0,0.1
		c0,0-0.2,0.5-0.2,0.6c-0.1,0.2-0.1,0.3-0.1,0.5c0,0.1,0,0.3-0.1,0.5c-0.1,0.3-0.1,0.5-0.1,0.6v0.1c-0.1,0.1-0.2,0.2-0.2,0.3l0,0.3
		l0,0C141.4,62.8,141.5,62.8,141.5,62.8"/>
	<path class="st1" d="M102.8,64.1L102.8,64.1L102.8,64.1c0.2,0,0.4,0,0.6-0.1c0.2-0.1,0.4-0.2,0.5-0.3l0.1-0.1c0,0,0-0.1,0-0.2
		l-0.1-0.1c-0.1,0-0.1-0.2-0.1-0.4c0-0.3,0.1-0.7,0.2-1.1l0.3-0.8l0-0.1l0-0.1c0.1-0.2,0.2-0.3,0.2-0.4l0-0.3c0.4-1,1.1-1.8,1.9-2.5
		l0,0l0,0c0-0.1,0.2-0.2,0.2-0.2h0c0,0,0.1,0,0.3-0.2c0.2-0.1,0.2-0.1,0.2-0.1c0,0,0.2-0.1,0.2-0.1v0c0,0,0-0.1,0.2-0.1
		c0.1,0,0.2-0.1,0.3-0.1h0l0,0l0.1,0.1l-0.1,0.1l0,0.1c0,0.1,0,0.1,0.1,0.2c0,0,0,0,0,0c0,0-0.1,0.1-0.1,0.1l-0.1,0.1l-0.1,0.2
		l0.1,0.3c0,0.1,0,0.1,0,0.2c0,0.3-0.2,0.6-0.5,0.9l0,0l0,0c0,0.4,0.1,0.9,0.4,0.9c0.2,0,0.4-0.1,0.9-1c0,0,0.2-0.2,0.2-0.3
		c0.1-0.2,0.1-0.2,0.1-0.3c0.2-0.1,0.2-0.2,0.2-0.3c0,0,0-0.1,0-0.1h0c0-0.1,0-0.4,0-0.4c0-0.1,0-0.3,0.1-0.4
		c0.1-0.2,0.1-0.2,0.1-0.2l0.1,0c0-0.4,0-0.7-0.1-0.9c0-0.1-0.1-0.1-0.3-0.3c-0.2-0.2-0.6-0.2-0.6-0.2c-0.1,0-0.2-0.1-0.3-0.1
		c-0.1,0-0.3,0.1-0.4,0.2l0,0l-0.4,0.1l0,0.1c0,0.1-0.1,0.2-0.4,0.3c-0.2,0.1-0.4,0.2-0.4,0.3c0,0,0,0,0,0c-0.1,0-0.1,0-0.1,0.1
		l-0.1,0.1l-0.4,0.6c0,0,0,0.1-0.2,0.1l-0.1,0l0,0.1c-0.1,0.1-0.2,0.3-0.4,0.5c-0.1,0.1-0.1,0.1-0.2,0.2c0.1-0.4,0.3-0.8,0.3-1.2
		l0,0l0,0c-0.1-0.2-0.2-0.3-0.2-0.4l-0.2,0c-0.1,0-0.1,0-0.2,0h0c-0.4,0-0.5,0-0.5,0.1l0,0.1l0,0c-0.5,2.2-0.6,2.7-0.7,2.7l0,0
		l0,0.3c-0.2,0.5-0.2,0.7-0.3,0.8l0,0.1c0,0-0.2,0.5-0.2,0.6c-0.1,0.2-0.1,0.3-0.1,0.5c0,0.1,0,0.3-0.1,0.5
		c-0.1,0.3-0.1,0.5-0.1,0.6v0.1c-0.1,0.1-0.2,0.2-0.2,0.3l0,0.3l0,0C102.7,64,102.8,64,102.8,64.1"/>
	<path class="st1" d="M84.2,63.9l0,0.2c0.3,0.1,0.4,0.2,0.4,0.2l0.1,0h0c0,0,0,0,0.1,0h0l0.2,0l0,0c0.1-0.1,0.2-0.1,0.3-0.1l0.1,0
		l0.5-0.3c0,0,0,0,0,0c0,0,0,0,0.1,0l0.2-0.2l0,0c0-0.4-0.3-0.8-1-1.1l-0.2,0.1c0,0,0,0,0,0l0,0c0,0-0.1,0-0.6,0.3l0,0l0,0
		c0,0,0,0,0,0.1C84,63.3,84,63.3,84,63.3C84,63.5,84,63.7,84.2,63.9C84.2,63.9,84.2,63.9,84.2,63.9"/>
	<path class="st1" d="M146.4,62.5l0,0.2c0.3,0.1,0.4,0.2,0.4,0.2l0.1,0h0c0,0,0,0,0.1,0h0l0.2,0l0,0c0.1-0.1,0.2-0.1,0.3-0.1l0.1,0
		l0.5-0.3c0,0,0,0,0,0c0,0,0,0,0.1,0l0.2-0.2l0,0c0-0.4-0.3-0.8-1-1.1l-0.2,0.1c0,0,0,0,0,0l0,0c0,0-0.1,0-0.6,0.3l0,0l0,0.1
		c0,0,0,0,0,0.1c-0.1,0.1-0.1,0.1-0.1,0.2C146.2,62.1,146.3,62.3,146.4,62.5C146.4,62.5,146.4,62.5,146.4,62.5"/>
	<path class="st1" d="M112.3,52.5L112.3,52.5l1,0.4l0.6-0.3l-0.2-0.1c0,0,0-0.1,0.1-0.1l0.1-0.1l-0.1-0.1l0,0l0,0c0,0,0,0,0-0.1
		c0-0.1,0-0.2,0-0.2l0-0.1l-0.1,0c-0.3-0.2-0.4-0.3-0.4-0.3l0,0l-0.1,0c0,0-0.1,0-0.1,0c0,0-0.1,0-0.2,0h0H113l0,0c0,0,0,0,0,0.1
		c0,0,0,0-0.1,0c-0.1,0-0.1,0-0.2,0c-0.1,0-0.4,0.1-0.4,0.4c0,0.1-0.1,0.1-0.1,0.2l0,0l0,0.3l0,0C112.2,52.4,112.3,52.5,112.3,52.5"
		/>
	<path class="st1" d="M109.4,63.1c0,0.1,0,0.3,0.1,0.3c0.1,0.1,0.2,0.1,0.4,0.1h0c0.5,0,0.6-0.3,0.6-0.5l0-0.6
		c0.1-0.2,0.2-0.4,0.2-0.6c0,0,0-0.2,0.2-0.9c0.1-0.4,0.1-0.5,0.1-0.5l0.1-0.1c0.5-1.6,0.8-2.2,0.9-2.3l0.1-0.4c0,0,0.2-0.4,0.2-0.4
		c0-0.1,0-0.2,0.2-0.5l0.2-0.4l0-0.1l-0.1-0.2c0,0,0-0.1-0.1-0.1c0.1-0.1,0.1-0.1,0.1-0.1l-0.1-0.2c0,0,0,0-0.2,0
		c-0.2,0-0.2,0-0.2,0c-0.1,0-0.1,0-0.2,0.1c-0.1,0-0.1,0.1-0.2,0.1c0,0,0,0-0.1-0.1l-0.1,0c0,0,0,0-0.1,0c-0.1,0-0.1,0-0.1,0
		l-0.4,0.2c0,0,0,0,0,0c-0.1,0.1-0.1,0.1-0.1,0.2c0,0.1,0,0.2,0.1,0.3c0,0,0,0.1,0,0.1l0,0.1l0.1,0c0,0,0,0,0,0.1c0,0.1,0,0.1,0,0.2
		c0,0.1,0,0.2,0,0.2c0,0,0,0,0,0l0.1,0.2c0,0,0,0,0,0.1c0,0.1-0.1,0.5-0.4,1.2c-0.3,0.8-0.5,1.2-0.5,1.2c-0.2,1-0.4,1.7-0.5,2.1l0,0
		l0,0c0,0,0,0.1,0,0.3c-0.1,0.3-0.1,0.4-0.1,0.4C109.5,62.7,109.4,63.1,109.4,63.1 M109.9,63.4L109.9,63.4L109.9,63.4L109.9,63.4z"
		/>
	<path class="st1" d="M120.2,62.9c0.3,0.2,0.4,0.3,0.5,0.3c0.1,0,0.3-0.1,0.4-0.2c0.2-0.1,0.3-0.3,0.3-0.4c0,0,0,0,0-0.1
		c0.2-0.5,0.4-0.9,0.5-1.3c0.3-0.5,0.5-0.9,0.6-1.1l0,0l0,0c0-0.1,0-0.4,1.5-2.3l0.1,0c0.1,0,0.1,0,0.2-0.1l0,0c0,0,0,0.2-0.2,0.4
		l0,0c-0.2,1.1-0.3,1.3-0.4,1.3l0,0.2c0,0,0,0,0,0c0,0,0,0.1-0.1,0.1l0,0v0c0,0.2,0,0.4,0,0.5c0,0.2-0.1,0.4-0.1,0.4
		c0,0-0.1,0.1-0.1,0.1v0l0,0c0,0.1,0.1,0.2,0.1,0.3c0,0,0,0.1-0.1,0.1l0.1,0.2c0,0,0,0.1,0,0.1c0,0.2,0.1,0.5,0.3,0.8
		c0,0.1,0.1,0.2,0.7,0.5c0.6,0.4,0.7,0.4,0.8,0.4h0c0.1,0,0.1,0,0.2-0.1c0.1-0.1,0.2-0.1,0.2-0.1s0,0,0,0c0.1,0,0.1,0,0.1,0l0,0
		c0.2-0.1,0.3-0.1,0.4-0.1c0,0,0,0,0,0l1.3-0.9c0.8-0.6,0.9-0.8,0.9-0.9c0-0.1,0-0.2-0.1-0.3c0,0-0.1-0.1-0.2-0.1l-0.2,0
		c-0.1,0-0.1,0-0.1,0c0,0-0.3,0.2-0.8,0.5c-0.6,0.4-0.8,0.4-0.8,0.4h0c-0.1,0-0.1,0-0.1,0l-0.2,0c0,0-0.1,0.1-0.1,0.1l-0.1,0.1h0
		c0,0-0.1,0-0.1,0l0,0h0c0,0-0.1,0-0.2,0c0,0,0,0-0.1,0c-0.4-0.2-0.4-0.3-0.4-0.3c-0.1-0.1-0.1-0.2-0.2-0.4c0-0.1,0-0.2,0-0.3
		c0,0-0.1-0.4-0.1-0.4c0,0,0-0.1,0-0.1s0,0,0-0.1c0.1-0.1,0.1-0.2,0.1-0.2l0,0l-0.1-0.1v0l0.1-0.2l0,0l0-0.1c0-0.1,0-0.1,0-0.2
		c0,0,0,0,0,0l0,0l0,0c0.1,0,0.1-0.1,0.1-0.2c0-0.1,0-0.2,0-0.2c0-0.1,0-0.1,0-0.2c0.5-1.8,0.8-2.9,1-3.4l-0.2-0.1l0,0
		c-0.1-0.1-0.3-0.3-0.5-0.4l0,0l-0.1,0l0,0c-0.5,0.3-1,0.7-1.4,1.1c-0.2,0.2-0.6,0.6-1,1.1c0.8-2.4,1.4-4,1.8-4.7l0-0.1l0,0
		c0,0,0,0,0-0.1h0c0.1-0.2,0.7-1.9,0.7-1.9l0-0.2c0.2-0.8,0.4-1.2,0.4-1.2c0-0.1,0-0.2,0-0.2c0,0,0,0-0.1,0
		c-0.2-0.3-0.5-0.4-0.8-0.4l0,0l0,0c-0.1,0.1-0.1,0.1-0.1,0.1c0,0-0.3,0.3-0.3,0.3c-0.1,0.1-0.2,0.2-0.2,0.4c0,0.1,0,0.1,0.1,0.2
		c0,0,0,0,0,0l-0.2,0.6c-0.2,0.7-0.5,1.6-0.9,2.8l-1.1,2.9l0,0l0,0c0,0-0.2,0.5-0.5,1.5c-0.2,0.8-0.4,1.4-0.6,1.6l0,0
		c-0.1,0.8-0.3,1.6-0.8,2.3l0,0.2l0,0.1c0,0,0,0.1-0.1,0.2l-0.2,0.2l0,0C119.8,62.6,119.9,62.7,120.2,62.9"/>
	<path class="st1" d="M128.1,58.9l0.3,0.1c0.1,0.1,0.2,0.2,0.3,0.2c0,0,0.1,0,0.1,0c0,0,0.1,0,0.1,0l0,0l0,0
		c0.6-0.4,1.1-0.7,1.5-0.8c-0.1,0.4-0.2,0.4-0.2,0.5l-0.1,0.1c-0.1,0.5-0.2,1.1-0.4,1.8c0,0,0,0.1-0.1,0.7c0,0.2-0.3,0.6-0.3,0.6
		s0,0,0,0c-0.1,0-0.1,0.1-0.1,0.2l0,0.1c0,0,0,0.2,0,0.3l0.1,0.1c0,0,0,0,0.1,0c0.1,0.1,0.1,0.1,0.2,0.1c0.2,0.1,0.2,0.1,0.2,0.1
		l0,0h0.1c0.1,0,0.1,0,0.3-0.1c0.1,0,0.2,0,0.2,0h0.1l0,0c0.1-0.1,0.2-0.2,0.2-0.2l0,0l0-0.1c0-0.1,0-0.2,0-0.3v0l0,0
		c0-0.1,0-0.1,0-0.2c0,0,0,0,0,0c0.1-0.1,0.1-0.1,0.1-0.2c0,0,0-0.1-0.1-0.2c0-0.1,0-0.1,0-0.2c0-0.4,0.1-0.9,0.4-1.7
		c0.2-0.7,0.4-1.3,0.4-1.6c0.1-0.1,0.3-0.2,0.5-0.3c0,0,0.1,0.1,0.1,0.1c0,0,0.1,0,0.5-0.1c0.3-0.1,0.5-0.1,0.6-0.2
		c0.2-0.1,0.8-0.3,0.9-0.2l0.1-0.1c0,0,0,0,0-0.1c0.1,0,0.3-0.1,0.4-0.2c0.2-0.1,0.3-0.1,0.3-0.1l0.1,0l0-0.1c0-0.2,0-0.3,0-0.3
		l0-0.1l-0.1,0c-0.1,0-0.3,0-0.6,0c-0.1,0-0.1,0-0.3,0.1c-0.1,0-0.2,0-0.3,0c-0.2,0-0.4,0.1-0.7,0.2c-0.3,0.1-0.5,0.1-0.6,0.2
		c0,0-0.1-0.1-0.1-0.1c0,0-0.1,0-0.2,0.1c-0.2,0-0.4,0-0.4,0c1-3.9,1.6-6.1,2-6.6c0.1-0.1,0.1-0.2,0.2-0.3c0.1-0.2,0.1-0.3,0.1-0.4
		c0,0,0-0.1-0.1-0.2c0-0.1-0.1-0.2,0-0.2l-0.1-0.1c-0.1-0.1-0.3-0.1-0.4-0.2c-0.1-0.1-0.3-0.1-0.4-0.1h-0.1c-0.1,0-0.2,0.1-0.4,0.2
		l-0.1,0.1c-0.1,0.1-0.3,0.4-0.3,0.5c0,0.1-0.1,0.2-0.1,0.3l0,0.1l0,0.1l0.1,0.2c0,0.1-0.1,0.1-0.1,0.2c0,0,0,0.1,0,0.1
		c-0.1,0.6-0.2,1.2-0.4,1.7l-0.4,1.4c-0.2,0.8-0.3,1.3-0.5,1.5l0,0v0c0,0.5-0.1,0.7-0.2,0.8l0,0.2c0,0,0,0.1,0,0.1
		c0,0,0,0.1,0.1,0.1c0,0.1-0.1,0.2-0.1,0.3c0,0.2-0.1,0.3-0.2,0.3c-0.1,0.1-0.2,0.1-0.3,0.1c0,0-0.1,0-0.1,0h0c0,0-0.1,0-0.1,0.1
		c0,0,0,0,0,0l0,0l-0.2,0.1c-0.2,0.1-0.4,0.2-0.4,0.2c-0.5,0.2-0.9,0.3-1,0.4c-0.3,0.1-0.4,0.3-0.5,0.6c0,0.1,0,0.1,0.1,0.4
		C128.2,58.9,128.1,58.9,128.1,58.9"/>
	<path class="st1" d="M134.8,59.2c-0.2,0.4-0.3,0.6-0.3,0.8l0,0.4c0,0.1-0.1,0.1-0.1,0.2c0,0,0,0.1,0.1,0.2c0,0.1,0,0.3,0,0.4
		c0.1,0.2,0.2,0.4,0.3,0.5c0,0,1,0.8,1.4,1c0.1,0,0.1,0.1,0.2,0.1c0,0,0.1,0,0.1,0c0.5-0.1,0.9-0.2,1-0.2c0.1,0,0.1,0,0.3-0.1
		c0.1-0.1,0.2-0.1,0.2-0.1s0,0,0.1,0c0.1,0,0.1,0,0.1,0c0.1,0,0.1,0,0.8-0.5c0.5-0.4,0.9-0.8,1.1-1c0.2-0.4,0.2-0.4,0.2-0.4
		c0-0.1,0-0.2-0.1-0.2c-0.1-0.1-0.2-0.1-0.3-0.1h0c-0.1,0-0.2,0-0.3,0.1c-0.1,0.1-0.2,0.1-0.2,0.1l0,0c-0.7,0.5-1.2,0.9-1.4,0.9l0,0
		c-0.1,0.1-0.2,0.2-0.4,0.2l0,0c0,0-0.1,0-0.1,0l0,0c-0.1,0-0.2,0.1-0.3,0.1c0,0-0.1,0-0.1,0c-0.1,0-0.1,0-0.2,0l-0.3,0
		c-0.1,0-0.2-0.1-0.4-0.2c-0.1-0.1-0.2-0.2-0.2-0.3c0,0,0.1-0.2,0.8-0.7c0.8-0.7,1.6-1.4,2.5-2.1l0,0c0.6-0.9,0.8-1,0.8-1.1l0-0.2
		c0,0,0,0,0,0c0.2-0.4,0.4-0.7,0.5-0.9l0,0l0,0c0-0.1-0.1-0.3-0.1-0.4c-0.1-0.3-0.2-0.7-0.5-0.7c0,0-0.1,0-0.1,0c0,0-0.1,0-0.1,0
		c0,0-0.5,0-0.5,0h0l0,0l0,0c-0.6,0.2-1,0.4-1.3,0.6c-0.4,0.4-0.5,0.4-0.5,0.4l0,0l0,0c-0.1,0-0.1,0.1-0.7,0.7
		c-0.4,0.6-0.7,0.7-0.8,0.8l0,0l0,0c-0.4,0.6-0.5,0.7-0.5,0.7l0,0c0,0,0,0.1-0.2,0.4C134.9,58.9,134.8,59,134.8,59.2 M136.8,58
		c0.2-0.2,0.6-0.6,1.1-1.2c0.4-0.3,0.8-0.5,1-0.7c0,0.1-0.1,0.1-0.1,0.2c-0.1,0.1-0.2,0.2-0.2,0.3c-0.1,0.1-0.2,0.3-0.3,0.4
		c0,0.1-0.1,0.2-0.4,0.5c-0.2,0.2-0.4,0.4-0.5,0.6c-0.6,0.4-1.1,0.8-1.4,1C136.3,58.7,136.5,58.4,136.8,58"/>
	<path class="st1" d="M143.2,66.7c-9.5,0.7-19,1.1-28.5,1.4c0-0.1,0.1-0.2,0.1-0.3l0.4-0.8c0,0,0.1-0.2,0.2-0.3l0-0.1
		c0-0.1,0.1-0.4,0.1-0.5c0.1-0.1,0.2-0.3,0.3-0.4l0.1-0.3c0.1-0.2,0.1-0.4,0.2-0.5c0-0.1,0.1-0.2,0.1-0.3l0-0.1c0,0,0,0,0,0
		c0.1-0.1,0.3-0.5,0.6-1.7c0.3-1,0.5-1.6,0.5-1.8c0.2-1.2,0.7-2.3,1.4-3.3l0,0c0.2-0.7,0.3-1,0.4-1l0-0.1c0-0.1,0-0.1,0-0.2
		c0.3-0.4,0.2-0.7,0.2-0.7l0,0c-0.2-0.3-0.7-0.7-0.8-0.7c0,0-0.1,0-0.1,0c-0.1,0-0.1-0.1-0.2-0.1l-0.3,0.1c0,0-1.1,0.5-1.3,0.6l0,0
		c-0.1,0.1-0.3,0.3-0.5,0.6c-0.2,0.2-0.3,0.3-0.5,0.4l0,0c-1,1.3-1.3,1.6-1.4,1.6l0,0l0,0c-0.1,0.3-0.2,0.4-0.2,0.5
		c-0.5,0.6-0.8,1-0.9,1.2c-0.2,0.4-0.4,0.7-0.4,0.9l0,0l0,0c0,0,0,0.1-0.1,0.3c0,0,0,0.4-0.1,0.5c-0.1,0.3-0.1,0.4-0.1,0.4l0,0l0,0
		c0.5,0.6,1,1,1.6,1v0l0.1,0l0.1,0c0,0,0,0,0.2-0.1c0.4-0.3,0.7-0.5,1-0.7c0.2-0.1,0.3-0.2,0.4-0.3c-0.2,0.5-0.2,0.6-0.2,0.7
		c0,0-0.1,0.5-0.2,0.6l0,0v0c0,0.1-0.1,0.6-0.5,1.9c-0.1,0.4-0.2,0.6-0.3,0.8c0,0-0.2,0.2-0.2,0.3c-0.1,0.1-0.2,0.2-0.4,0.6
		c-0.2,0.6-0.4,0.9-0.4,0.9c0,0,0,0,0,0c-0.1,0.1-0.1,0.1-0.1,0.2c0,0.1-0.1,0.1-0.1,0.1l-0.1,0.1c-2.2,0.1-4.3,0.1-6.5,0.2
		c0.1-0.4,0.3-1.2,0.3-1.2c0.1-0.2,0.1-0.4,0.1-0.4l0-0.1c0-0.1,0-0.1,0-0.2c0.2-0.3,0.3-0.5,0.5-0.7c0.1-0.1,0.2-0.4,0.2-0.4
		c-0.1-0.3-0.3-0.4-0.4-0.4c-0.2,0-0.4,0.1-0.5,0.3c-0.3,0.8-0.5,0.8-0.5,0.9l-0.1,0l0,0.1c-0.1,0.3-0.1,0.4-0.1,0.4
		s-0.1,0.3-0.1,0.4c0,0.1,0,0.2-0.2,0.6c-0.1,0.2-0.2,0.4-0.2,0.6c-22.7,0.6-43.5,0.5-66.2,1.5c-0.7,0-2.8,1.1-1.1,1
		c23-1,44.2-0.9,67.2-1.5l0,0.2l0,0.1c0,0,0.4,1.3,1,2l0,0c0.1,0,0.1,0.1,0.1,0.1l0.2,0.1c0,0,0.1,0,0.3,0.2
		c0.3,0.2,0.4,0.3,0.5,0.3c0.3,0.1,0.5,0.2,0.6,0.2c0.2,0,0.3,0.1,0.3,0.1l0,0l0.6,0c0.7,0,0.8-0.1,0.8-0.1c0.5-0.2,1-0.4,1.3-0.6
		l0,0l0,0c0.1-0.2,0.2-0.2,0.2-0.3c0.1,0,0.2-0.1,0.3-0.2l0,0c0,0,0,0,0.1,0h0l0.2-0.2c0.1-0.3,0.2-0.3,0.2-0.3
		c0.3-0.2,0.6-0.6,1-1.2l0.1-0.1l0,0c0,0,0.1-0.1,0.1-0.1c0.1-0.1,0.1-0.2,0.1-0.2c0.1-0.1,0.1-0.1,0.2-0.1
		c9.3-0.3,18.6-0.7,27.9-1.4C142.7,67.7,144.9,66.6,143.2,66.7 M115.9,60.4c0,0-0.2,0.2-0.2,0.2c0,0.1-0.6,0.6-0.6,0.7
		c0,0-0.4,0.3-0.4,0.4c-0.1,0-0.2,0.1-0.4,0.2c0,0-0.1,0-0.1,0c0,0-0.1,0-0.1,0c-0.1,0-0.1,0-0.2,0c0,0-0.1-0.1-0.1-0.3
		c0-0.6,0.5-1.4,1.4-2.6c0.7-0.9,1.3-1.5,1.7-1.9c0.1,0.1,0.1,0.2,0.1,0.2c0,0.1-0.1,0.3-0.1,0.6c-0.4,1.4-0.5,1.6-0.6,1.7
		c0,0-0.1,0.1-0.1,0.2c0,0.1-0.1,0.1-0.1,0.1l0,0l0,0C116.1,60.2,116,60.3,115.9,60.4 M112.7,69.3L112.7,69.3
		c-0.2,0.4-0.5,0.7-1,1.1c-0.3,0.3-0.5,0.4-0.7,0.5c-0.3,0.1-0.5,0.2-0.8,0.3c-0.3,0.1-0.4,0.1-0.4,0.1s0,0-0.1,0
		c-0.1,0-0.1-0.1-0.2-0.1c-0.1,0-0.1,0-0.2,0.1c0,0,0,0,0,0c0,0-0.1,0-0.1,0c-0.1,0-0.2,0-0.3,0c-0.1,0-0.1,0-0.2-0.1l0,0l-0.1,0
		c0,0-0.1,0-0.1,0l-0.1,0c0,0-0.2-0.1-0.8-0.6c-0.1-0.2-0.2-0.3-0.2-0.5l0,0l-0.3-0.6c0-0.1-0.1-0.2-0.1-0.3
		c1.9-0.1,3.9-0.1,5.8-0.2C112.8,69.2,112.7,69.2,112.7,69.3"/>
	<path class="st1" d="M91.6,65L91.6,65c0.1,0,0.1,0,0.2-0.1l0,0c0,0,0.1,0.1,0.1,0.1c0,0,0.1,0,0.2,0c0.1,0,0.1,0,0.2,0l0.1,0l0-0.1
		c0-0.1,0.1-0.4,1-0.8c0.5-0.3,1.1-0.5,1.6-0.9c3-2,4.8-3.2,5.6-3.7l0,0c1-1.2,1.4-1.7,1.4-1.7c0.6-0.8,0.9-1.4,0.9-1.9
		c0-0.3-0.1-0.6-0.4-0.9c-0.3-0.3-0.6-0.4-0.9-0.4h0c0,0-0.1,0-0.1,0l0,0c0,0-0.1,0-0.2,0c-0.1,0-0.2,0-0.3-0.1h0c0,0-0.1,0-0.2,0
		c-0.1,0-0.1,0-0.1,0c0,0-0.1,0-0.2,0c-0.1,0-0.2,0-0.2,0c-0.1,0-0.5,0.1-1.2,0.2c-0.3,0.1-0.5,0.1-0.6,0.1c0,0-0.1,0-0.1,0
		c-0.1,0-0.2,0-0.3,0.1c0.1-0.1,0.4-0.3,0.7-0.6c0.5-0.4,0.9-0.6,1.2-0.7l0,0c0.5-0.5,0.9-0.9,1.2-1.1c1.1-1,1.2-1.3,1.2-1.5
		c0-0.2-0.2-0.4-0.5-0.5c-0.3-0.1-0.6-0.2-0.7-0.2h0c-0.1,0-0.1,0-0.2,0c-0.1,0-0.2,0-0.2,0l-1.5,0c0,0-0.1,0-0.2,0
		c-0.1,0-0.1,0-0.1,0s0,0,0,0c-0.1,0-0.1,0-0.2,0c-0.3,0-0.9,0.1-2,0.3c-0.8,0.1-1,0.2-1.2,0.2c-0.1,0-0.1,0-0.2,0h0l0,0
		c-0.1,0.1-0.3,0.1-0.6,0.2c-0.4,0.1-0.6,0.2-0.7,0.2c0,0,0,0-0.1,0c-0.1,0-0.1,0-0.2,0h0c-0.1,0-0.1,0-0.2,0.1c-0.1,0-0.2,0-0.2,0
		h0l0,0c-0.2,0.1-0.3,0.2-0.4,0.3h0c-0.1,0-0.1,0-0.1,0c-0.1,0-0.1,0.1-0.1,0.3c0,0,0,0.1,0.2,0.4c0.2,0.2,0.2,0.3,0.2,0.4l0,0.1
		l0.1,0c0,0,0.1,0,0.1,0c0.1,0,0.1,0,0.2,0h0c0.4,0,0.8-0.2,1.3-0.5c0,0,0.1,0,0.1-0.1c0,0,0,0,0,0l0,0l0,0c0.2-0.1,0.3-0.2,0.4-0.2
		c0,0,0.1,0,0.1,0c0,0,0.1,0,0.1,0c0,0.3,0,0.4,0,0.5l-2.7,8.6l0,0.7l0,0c0,0,0,0,0,0c-0.1,0.1-0.2,0.2-0.3,0.3l0,0l0,0
		c0,0.1,0,0.2,0.1,0.3c0,0.1,0,0.2,0,0.3c0,0.3-0.1,0.4-0.1,0.4c-0.2,0.1-0.4,0.2-0.5,0.2c-0.1,0-0.2,0.1-0.6,0.3
		c-0.4,0.3-0.5,0.4-0.5,0.5c0,0.1,0,0.3,0.2,0.4C91.4,64.9,91.5,65,91.6,65 M96.4,54.3c0.1-0.2,0.1-0.3,0.1-0.4
		c0.2-0.2,0.3-0.5,0.4-0.8c0.1-0.4,0.1-0.6,0.2-0.7c0.1,0,0.2-0.1,0.3-0.3c0.1-0.2,0.2-0.4,0.2-0.5c0,0,0,0,0,0
		c0.8-0.2,1.3-0.3,1.4-0.3c0,0,0.1,0,0.2-0.1c0.1,0,0.1,0,0.1,0l0-0.1V51c0,0,0.1,0,0.2,0c0.1,0,0.2,0,0.2,0h0c0.1,0,0.2,0,0.2,0h0
		c0.1,0,0.1,0,0.2,0h0h0c0,0,0.1,0,0.1,0l0.1,0c0,0,0,0,0.1,0c-0.5,0.7-1.2,1.4-2.2,2c-0.2,0.1-0.6,0.4-1.2,0.9
		c-0.5,0.4-0.7,0.5-0.9,0.6C96.3,54.5,96.3,54.4,96.4,54.3 M94.5,59.5c0.3-0.5,0.6-1.4,0.9-2.6c0,0,0.1,0,0.3-0.1
		c0.2-0.1,0.4-0.2,0.5-0.3c0.1,0,0.3-0.1,1.1-0.5c1.4-0.4,2.2-0.7,2.4-0.7c0,0,0.1,0.1,0.1,0.1c0.1,0,0.1,0,0.2,0c0.1,0,0.2,0,0.2,0
		c0,0,0.1,0,0.1,0c0.1,0,0.1,0,0.2,0h0l0.2,0c0.1,0,0.3,0.1,0.5,0.2c0.2,0.1,0.3,0.3,0.3,0.4c0,0.4-0.4,1.2-2.3,3.2l-2.2,1.6
		c-0.8,0.6-1.6,1.1-2.5,1.6v0L94.6,62c0-0.1-0.1-0.2-0.1-0.4c0-0.4,0-0.7,0-0.9l0-0.1c0-0.1,0-0.1,0-0.2c0,0,0-0.1,0-0.1
		c0-0.1,0.1-0.1,0.1-0.3l0,0L94.5,59.5z"/>
</g>
<g id="Layer_2">
	<path class="st0" d="M69.5,16.1h4.1l2.8,6.7h0.1c0-1,0-2,0.1-3.1l0.6-3.6h4.1l-1.9,12.3h-4.1l-2.8-6.5h-0.1c0,0.8,0,1.6-0.1,2.4
		l-0.6,4.1h-4.1L69.5,16.1z"/>
	<polygon class="st0" points="58.9,16.1 49.6,16.1 49,19.5 51.7,19.5 50.2,28.2 54.5,28.2 56,19.5 58.3,19.5 	"/>
	<polygon class="st0" points="58.9,16.1 49.6,16.1 49,19.5 51.7,19.5 50.2,28.2 54.5,28.2 56,19.5 58.3,19.5 	"/>
	<polygon class="st0" points="67.7,19.2 68.2,16.2 60,16.2 59.5,19.2 59.5,19.2 58,28.3 66.3,28.3 66.9,25.1 63,25.1 63.2,23.7 
		66.6,23.7 67.1,20.6 63.7,20.6 63.9,19.2 	"/>
	<path class="st0" d="M88.9,28.3h4.2L91,16.1h-4.8l-6.1,12.2h4.6l0.5-1.5h3.6L88.9,28.3z M86.1,24.1l1.8-5.3l0.6,5.3H86.1z"/>
	<path class="st0" d="M113.3,28.3h4.2l-2.1-12.2h-4.8l-6.1,12.2h4.6l0.5-1.5h3.6L113.3,28.3z M110.5,24.1l1.8-5.3l0.6,5.3H110.5z"/>
	<path class="st0" d="M105.5,18.9c0,0-1.4-3-5.7-3c-4.3,0-6.9,3.1-6.9,6.9c0,3.8,2.7,5.9,6.5,5.9c0,0,3.3-0.2,4.6-1.6l1.2-5.6h-6
		v2.2h1.5c0,0,0.3,2-1.5,2c-1.9,0-2.2-2.3-2.1-3.7c0.1-1,0.8-3.1,2.8-3.1c0,0,1.1-0.1,1.7,1.2L105.5,18.9z"/>
	<path class="st0" d="M106,30.6h4.1l2.8,6.7h0.1c0-1,0-2.1,0.1-3.1l0.6-3.6h4.1l-1.9,12.2h-4.1l-2.8-6.4h-0.1c0,0.8,0,1.6-0.1,2.4
		l-0.6,4h-4.1L106,30.6z"/>
	<path class="st0" d="M125.3,42.7h4.1l-2.1-12.1h-4.8l-6,12.1h4.6l0.5-1.4h3.5L125.3,42.7z M122.6,38.5l1.8-5.2l0.5,5.2H122.6z"/>
	<path class="st0" d="M51.2,30.6h4.1l2.8,6.7h0.1c0-1,0-2.1,0.1-3.1l0.6-3.6h4.1L61,42.7H57l-2.8-6.4h-0.1c0,0.8,0,1.6-0.1,2.4
		l-0.6,3.9h-4.1L51.2,30.6z"/>
	<polygon class="st0" points="132,30.6 136.3,30.6 135,39.2 138.6,39.2 138,42.7 130.2,42.7 	"/>
	<path class="st0" d="M70.5,42.8h4.1l-2.1-12.2h-4.8l-6,12.2h4.6l0.5-1.5h3.5L70.5,42.8z M67.7,38.5l1.8-5.2l0.6,5.2H67.7z"/>
	<path class="st0" d="M85.2,31.7c0,0-1.6-1.4-4.6-1.4c-3,0-4.4,1.8-4.4,3.5c0,1.7,1,3.2,2.2,3.7c1.2,0.6,2.4,0.8,2.4,1.8
		c0,1.1-3.4,0.9-4.7-1.3L74.6,41c0,0,1.3,2.1,4.8,2.1c3.5,0,5.4-2.6,5.4-4.6c0-2-2.1-2.8-2.1-2.8s-2.5-0.4-2.5-1.4
		c0-1,1.7-1.4,3.3,0L85.2,31.7z"/>
	<polygon class="st0" points="91.1,30.6 86.9,30.6 84.8,42.8 89.1,42.8 	"/>
	<path class="st0" d="M101.8,31.8c-2.5-2.1-6.5-1.6-9,1.1c-2.5,2.7-2.5,6.5,0,8.6c2.5,2.1,6.5,1.6,9-1.1
		C104.3,37.8,104.3,33.9,101.8,31.8 M99.6,37.2c-0.6,1.4-1.9,2.2-3.1,1.8c-1.1-0.4-1.6-1.9-1-3.3c0.6-1.4,2-2.2,3.1-1.8
		C99.7,34.3,100.1,35.8,99.6,37.2"/>
	<path class="st1" d="M25.3,6.2L13.6,18.1c0,0-0.6,0.6-0.2,1.4c0.1,0.3,0.7,0.7,1.1,0.7h6.9c0,0,1.5,0.2,0.9,1.8l-5.6,9.7
		c0,0-0.5,0.6-1.1,0.5c-0.5-0.1-1-0.5-1-1.1v-2.7c0,0-0.2-2.1-1.5-3.5c-0.7-0.8-1.8-1.4-3.3-1.4H6.5c0,0-1.6-0.1-1.6-1.5V6.7
		c0,0-0.1-1.9,1.9-1.9h29.7c0,0,2-0.1,2,1.7v15.4c0,0-0.1,1.5-1.6,1.5h-3.1c0,0-4.9,0.1-4.9,4.9v7.9c0,0-0.1,1.5-1.8,1.5h-15
		c0,0-2.5,0.1-2.5,2.4c0,0,0.2,2.4,2.4,2.4h15.2c2.6,0,6.5-2,6.5-6.4v-6c0,0-0.1-1.9,2.3-1.9c0,0,2.4,0.2,4.5-1.2
		c1.4-1,2.7-2.8,2.7-5.4V6.1c0,0,0-1.4-1-3.1C41.3,1.5,39.5,0,36.9,0H6.4C6.4,0,0,0.3,0,6.9v14.7c0,0-0.2,5.7,5.8,6.7h1.8
		c0,0,2-0.2,2,2.6c0,0-0.2,5,4.9,6.1c4.2,0.9,6.2-2.9,6.2-2.9l9.5-16.4c0,0,0.4-0.8,0-1.5c-0.3-0.6-0.8-0.9-1.6-0.8H23
		c0,0-1.5-0.3-1.1-1.7L25.3,6.2z"/>
	<path class="st1" d="M28.9,46.2c0,1.3-0.9,2.4-2.2,2.4H16.7c-1.2,0-2.2-1.1-2.2-2.4v-0.1c0-1.3,0.9-2.4,2.2-2.4h10.1
		C27.9,43.8,28.9,44.9,28.9,46.2L28.9,46.2z"/>
	<path class="st1" d="M42.2,66.5L42.2,66.5c0.1,0,0.1,0,0.2-0.1c0,0,0,0,0,0c0,0,0.1,0.1,0.2,0.1c0,0,0.1,0,0.2,0c0.1,0,0.1,0,0.2,0
		l0.1,0l0-0.1c0-0.1,0.1-0.4,1-0.8c0.5-0.3,1.1-0.5,1.6-0.9c3-2,4.8-3.2,5.6-3.7l0,0c1-1.2,1.4-1.6,1.4-1.7c0.6-0.8,0.9-1.4,0.9-1.9
		c0-0.3-0.1-0.6-0.4-0.9c-0.3-0.3-0.6-0.4-0.9-0.4h0c0,0-0.1,0-0.1,0c0,0,0,0,0,0c0,0-0.1,0-0.2,0c-0.1,0-0.2,0-0.3,0h0
		c0,0-0.1,0-0.2,0c-0.1,0-0.1,0-0.1,0c0,0-0.1,0-0.2,0c-0.1,0-0.2,0-0.2,0c-0.1,0-0.5,0.1-1.2,0.2c-0.3,0.1-0.5,0.1-0.6,0.1
		c0,0-0.1,0-0.1,0c-0.1,0-0.2,0-0.3,0.1c0.1-0.1,0.4-0.3,0.7-0.6c0.5-0.4,0.9-0.6,1.2-0.7l0,0c0.5-0.5,0.9-0.9,1.2-1.1
		c1.1-1,1.2-1.3,1.2-1.5c0-0.2-0.2-0.4-0.5-0.5c-0.3-0.1-0.6-0.2-0.7-0.2h0c0,0-0.1,0-0.2,0c-0.1,0-0.2,0-0.2,0l-1.5,0.1
		c0,0-0.1,0-0.2,0c-0.1,0-0.1,0-0.1,0s0,0,0,0c-0.1,0-0.1,0-0.2,0c-0.3,0-0.9,0.1-2,0.3c-0.7,0.1-1,0.2-1.2,0.2c0,0-0.1,0-0.2,0l0,0
		l0,0c-0.1,0.1-0.3,0.1-0.6,0.2c-0.4,0.1-0.6,0.2-0.7,0.2c0,0,0,0-0.1,0c-0.1,0-0.1,0-0.2,0h0c-0.1,0-0.1,0-0.2,0.1
		c-0.1,0-0.2,0-0.2,0h0l0,0c-0.2,0.1-0.3,0.2-0.4,0.3h0c-0.1,0-0.1,0-0.2,0c-0.1,0-0.1,0.1-0.1,0.3c0,0,0,0.1,0.2,0.4
		c0.2,0.2,0.2,0.3,0.2,0.4l0,0.1l0.1,0c0,0,0.1,0,0.1,0c0.1,0,0.1,0,0.2,0h0c0.4,0,0.8-0.2,1.3-0.5c0,0,0.1,0,0.1-0.1c0,0,0,0,0,0
		l0,0l0,0c0.2-0.1,0.3-0.2,0.4-0.2c0,0,0.1,0,0.1,0c0,0,0.1,0,0.1,0c0,0.3,0,0.4,0,0.5l-2.7,8.6l0,0.7l0,0c0,0,0,0,0,0
		c-0.1,0.1-0.2,0.2-0.3,0.3l0,0l0,0c0,0.1,0,0.2,0.1,0.3c0,0.1,0,0.2,0,0.3c0,0.3-0.1,0.4-0.1,0.4c-0.2,0.1-0.4,0.2-0.5,0.2
		c-0.1,0-0.2,0.1-0.6,0.3c-0.4,0.3-0.5,0.4-0.5,0.5c0,0.1,0,0.3,0.2,0.4C41.9,66.5,42,66.5,42.2,66.5 M46.9,55.9
		c0.1-0.2,0.1-0.3,0.1-0.4c0.2-0.2,0.3-0.5,0.4-0.8c0.1-0.4,0.1-0.6,0.2-0.7c0.1,0,0.2-0.1,0.3-0.3c0.1-0.2,0.2-0.4,0.2-0.5
		c0,0,0,0,0,0c0.8-0.2,1.3-0.3,1.4-0.3c0,0,0.1,0,0.2-0.1c0.1,0,0.1,0,0.1,0l0-0.1v0.1c0,0,0.1,0,0.2,0c0.1,0,0.2,0,0.2,0h0
		c0.1,0,0.2,0,0.2,0h0c0.1,0,0.1,0,0.2,0l0,0h0c0,0,0.1,0,0.1,0l0.1,0c0,0,0,0,0.1,0c-0.5,0.7-1.2,1.4-2.2,2
		c-0.2,0.1-0.6,0.4-1.2,0.9c-0.5,0.4-0.7,0.5-0.9,0.6C46.9,56.1,46.9,56,46.9,55.9 M45.1,61.1c0.3-0.5,0.6-1.4,0.9-2.6
		c0,0,0.1,0,0.3-0.1c0.2-0.1,0.4-0.2,0.5-0.4c0.1,0,0.3-0.1,1.1-0.5c1.4-0.4,2.2-0.7,2.4-0.7c0,0,0.1,0.1,0.1,0.1c0.1,0,0.1,0,0.2,0
		c0.1,0,0.2,0,0.2,0c0,0,0.1,0,0.1,0c0.1,0,0.1,0,0.2,0h0l0.2,0c0.1,0,0.3,0.1,0.5,0.2c0.2,0.1,0.3,0.3,0.3,0.4
		c0,0.4-0.4,1.2-2.3,3.2l-2.2,1.6c-0.8,0.6-1.6,1.1-2.5,1.6v0l-0.1-0.2c0-0.1-0.1-0.2-0.1-0.4c0-0.4,0-0.7,0-0.9l0-0.1
		c0-0.1,0-0.1,0-0.2c0,0,0-0.1,0-0.1c0-0.1,0.1-0.1,0.1-0.3l0,0L45.1,61.1z"/>
	<path class="st1" d="M53.2,59.9L53.2,59.9c-0.4,0.6-0.5,0.7-0.5,0.8l0,0c0,0,0,0.1-0.2,0.4c-0.2,0.2-0.2,0.4-0.2,0.6
		c-0.2,0.4-0.3,0.6-0.3,0.8l0,0.4c0,0.1-0.1,0.1-0.1,0.2c0,0.1,0,0.1,0.1,0.2c0,0.1,0,0.2,0,0.4c0,0.3,0.3,0.8,0.3,0.8
		c0.5,0.3,1,0.5,1.4,0.7c0.1,0,0.1,0.1,0.2,0.1c0,0,0,0,0.1,0c0.5-0.1,0.9-0.2,1-0.2c0,0,0.1,0,0.3-0.1c0.1-0.1,0.2-0.1,0.1-0.1
		c0,0,0,0,0.1,0c0,0,0.1,0,0.1,0c0.1,0,0.1,0,0.8-0.5c0.5-0.4,0.9-0.6,1.1-1c0.2-0.4,0.2-0.4,0.2-0.4c0-0.1,0-0.2-0.1-0.2
		c-0.1-0.1-0.2-0.1-0.3-0.1h0c-0.1,0-0.2,0-0.3,0.1c-0.1,0.1-0.2,0.1-0.2,0.1l0,0c-0.7,0.5-1.2,0.9-1.4,0.9l0,0
		c-0.1,0.1-0.2,0.2-0.4,0.2h0c0,0-0.1,0-0.1,0l0,0c-0.1,0-0.2,0.1-0.3,0.1c0,0-0.1,0-0.1,0c-0.1,0-0.1,0-0.2,0l-0.3,0
		c-0.1,0-0.2-0.1-0.4-0.2c-0.1-0.1-0.2-0.2-0.2-0.3c0,0,0.1-0.2,0.8-0.7c0.8-0.7,1.6-1.4,2.5-2.1l0,0c0.6-0.9,0.8-1,0.9-1.1l0-0.2
		c0,0,0,0,0,0c0.2-0.4,0.4-0.7,0.5-0.9l0,0l0,0c0-0.1-0.1-0.3-0.1-0.4c-0.1-0.3-0.2-0.7-0.5-0.7c0,0-0.1,0-0.1,0c0,0-0.1,0-0.1,0
		c0,0-0.5,0-0.5,0h0l0,0c-0.6,0.2-1,0.4-1.3,0.6c-0.4,0.4-0.5,0.4-0.5,0.4l0,0l0,0c0,0-0.1,0.1-0.7,0.7
		C53.5,59.7,53.3,59.9,53.2,59.9 M54.2,60.6c0.2-0.2,0.6-0.6,1.1-1.2c0.4-0.3,0.8-0.5,1-0.6c0,0.1-0.1,0.1-0.1,0.2
		c-0.1,0.1-0.2,0.2-0.2,0.3c-0.1,0.1-0.2,0.3-0.3,0.4c0,0.1-0.1,0.2-0.4,0.5c-0.2,0.2-0.4,0.4-0.5,0.6c-0.6,0.4-1.1,0.8-1.4,1
		C53.7,61.3,53.9,60.9,54.2,60.6"/>
	<path class="st1" d="M58.5,61.1l0.3,0.1c0.1,0.1,0.2,0.2,0.3,0.2c0,0,0.1,0,0.1,0c0,0,0.1,0,0.1,0l0,0l0,0c0.6-0.4,1.1-0.7,1.5-0.8
		c-0.2,0.3-0.2,0.5-0.2,0.5c-0.1,0.5-0.2,1.1-0.4,1.8c0,0,0,0.1-0.1,0.7c0,0.2-0.3,0.6-0.3,0.6h0c-0.1,0.1-0.1,0.1-0.1,0.2l0,0.1
		c0,0,0,0.2,0,0.3c0,0,0.3,0.2,0.4,0.2c0.2,0.1,0.2,0.1,0.2,0.1l0,0h0c0.1,0,0.1,0,0.3-0.1c0.1,0,0.2,0,0.2,0h0l0,0
		c0.1-0.1,0.2-0.2,0.2-0.2l0,0l0-0.1c0-0.1,0-0.2,0-0.3l0,0l0,0c0-0.1,0-0.2,0-0.2c0,0,0,0,0,0c0.1-0.1,0.1-0.1,0.1-0.2
		c0,0,0-0.1-0.1-0.2c0-0.1,0-0.1,0-0.2c0-0.4,0.1-0.9,0.4-1.7c0.2-0.7,0.4-1.3,0.4-1.6c0.1-0.1,0.3-0.2,0.5-0.3c0,0,0.1,0.1,0.1,0.1
		c0,0,0,0,0.5-0.1c0.3-0.1,0.5-0.1,0.6-0.2c0.2-0.1,1-0.3,1-0.3c0,0,0,0,0,0c0.1,0,0.3-0.1,0.4-0.2c0.2-0.1,0.3-0.1,0.3-0.1l0.1,0
		l0-0.1c0-0.2,0-0.3,0-0.3l0-0.1l-0.1,0c-0.1,0-0.3,0-0.6,0c-0.1,0-0.1,0-0.3,0.1c-0.1,0-0.1,0-0.1,0c0-0.1-0.1-0.1-0.1-0.1
		c-0.2,0-0.4,0.1-0.7,0.2c-0.3,0.1-0.5,0.1-0.6,0.2c0,0-0.1-0.1-0.1-0.1c0,0-0.1,0-0.2,0.1c-0.2,0-0.4,0-0.4,0c1-3.9,1.6-6.1,2-6.6
		c0.1-0.1,0.1-0.2,0.2-0.3c0.1-0.2,0.1-0.3,0.1-0.4c0,0,0-0.1-0.1-0.2c0-0.1-0.1-0.2-0.1-0.2c0,0-0.3-0.2-0.5-0.3
		c-0.1-0.1-0.3-0.1-0.4-0.1h-0.1c-0.1,0-0.2,0.1-0.4,0.2L63.1,51c-0.1,0.1-0.3,0.4-0.3,0.5c0,0.1-0.1,0.2-0.1,0.3l0,0.1l0,0.1
		l0.1,0.3c0,0-0.1,0.1-0.1,0.2c0,0,0,0.1,0,0.1c-0.1,0.6-0.2,1.2-0.4,1.7l-0.4,1.4c-0.2,0.7-0.3,1.3-0.4,1.5l0,0v0
		c0,0.5-0.1,0.7-0.2,0.8l0,0.2c0,0,0,0.1,0,0.1c0,0,0,0.1,0.1,0.1c0,0.1-0.1,0.2-0.1,0.3c0,0.2-0.1,0.3-0.2,0.3
		c-0.1,0.1-0.2,0.1-0.3,0.1c0,0-0.1,0-0.1,0h0c0,0-0.1,0-0.1,0.1c0,0,0,0,0,0l0,0l-0.2,0.1c-0.2,0.1-0.4,0.2-0.4,0.2
		c-0.5,0.2-0.9,0.3-1,0.4c-0.3,0.1-0.4,0.3-0.5,0.6c0,0.1,0,0.1,0.1,0.4C58.5,61,58.5,61.1,58.5,61.1"/>
	<path class="st1" d="M64.1,60.3c0,0,0,0.1,0.1,0.3c0.1,0.2,0.6,0.5,0.7,0.5h0c0,0,0.1,0,0.1,0c0,0,0.1,0,0.1,0h0l0,0
		c0.6-0.4,1.1-0.7,1.5-0.8c-0.1,0.4-0.2,0.5-0.2,0.5l-0.1,0l0,0.1c-0.1,0.5-0.2,1.1-0.4,1.8c0,0,0,0.1-0.1,0.7
		c0,0.2-0.3,0.6-0.3,0.6l0,0c-0.1,0.1-0.1,0.1-0.1,0.2l0,0.1c0,0,0,0.2,0,0.3l0.1,0.1c0,0,0,0,0.1,0c0.1,0,0.1,0.1,0.2,0.1
		c0.2,0.1,0.2,0.1,0.2,0.1l0,0h0c0.1,0,0.1,0,0.3-0.1c0.1,0,0.2,0,0.2,0l0,0l0,0c0.1-0.1,0.2-0.2,0.2-0.2l0,0l0-0.1
		c0-0.1,0-0.2,0-0.3v0v0c0-0.1,0-0.1,0-0.2c0,0,0,0,0,0c0.1-0.1,0.1-0.1,0.1-0.2c0,0,0-0.1-0.1-0.2c0-0.1,0-0.1,0-0.2
		c0-0.4,0.1-0.9,0.4-1.7c0.2-0.7,0.4-1.3,0.4-1.6c0.1-0.1,0.3-0.2,0.5-0.3c0,0,0.1,0.1,0.1,0.1h0c0,0,0,0,0.5-0.1
		c0.3-0.1,0.5-0.1,0.6-0.2c0.2-0.1,0.5-0.1,0.5-0.1c0.2-0.1,0.3-0.2,0.4-0.2l0.1-0.1c0,0,0,0,0-0.1c0.1,0,0.3-0.1,0.4-0.2
		c0.2-0.1,0.3-0.1,0.3-0.1l0.1,0l0-0.1c0-0.2,0-0.3,0-0.3l0-0.1l-0.1,0c-0.1,0-0.3,0-0.6,0c-0.1,0-0.1,0-0.3,0.1c-0.1,0-0.1,0-0.1,0
		c0-0.1-0.1-0.1-0.1-0.1c-0.2,0-0.4,0.1-0.7,0.2c-0.3,0.1-0.5,0.1-0.6,0.2c0,0-0.1,0-0.1,0c0,0-0.1,0-0.2,0.1c-0.2,0-0.4,0-0.4,0
		c1-3.9,1.6-6.1,2-6.6c0.1-0.1,0.1-0.2,0.2-0.3c0.1-0.2,0.1-0.3,0.1-0.4c0,0,0-0.1-0.1-0.2c0-0.1-0.1-0.2-0.1-0.2
		c0,0-0.3-0.2-0.5-0.3c-0.1-0.1-0.3-0.1-0.4-0.1h-0.1c-0.1,0-0.2,0.1-0.4,0.2l-0.1,0.1c-0.1,0.1-0.2,0.1-0.2,0.1
		c0,0-0.1,0.3-0.1,0.3c0,0.1-0.1,0.2-0.1,0.3l0,0.1l0,0.1l0.1,0.3c-0.1,0.1-0.1,0.1-0.1,0.2c0,0,0,0.1,0,0.1
		c-0.1,0.7-0.2,1.2-0.4,1.7l-0.4,1.4c-0.2,0.8-0.3,1.3-0.4,1.5l0,0l0,0c0,0.5-0.1,0.7-0.2,0.8l0,0.2c0,0,0,0.1,0,0.1
		c0,0,0,0.1,0,0.1c0,0.1-0.1,0.2-0.1,0.3c0,0.2-0.1,0.3-0.2,0.3C66.7,59,66.6,59,66.5,59c0,0-0.1,0-0.1,0h0c0,0-0.1,0-0.1,0.1
		c0,0,0,0,0,0l0,0L66,59.2c-0.2,0.1-0.4,0.2-0.4,0.2c-0.5,0.2-0.9,0.3-1,0.4C64.3,59.9,64.1,60.1,64.1,60.3"/>
	<path class="st1" d="M71,61.2c-0.2,0.4-0.3,0.6-0.3,0.8l0,0.4c0,0.1-0.1,0.1-0.1,0.2c0,0.1,0,0.1,0.1,0.2c0,0.1,0,0.3,0,0.4
		c0.1,0.2,0.3,0.8,0.3,0.8c0.5,0.3,1,0.5,1.4,0.7c0.1,0,0.1,0.1,0.2,0.1c0,0,0,0,0.1,0c0.5-0.1,0.9-0.2,1-0.2c0.1,0,0.1,0,0.3-0.1
		c0.1-0.1,0.2-0.1,0.2-0.1s0,0,0.1,0c0,0,0.1,0,0.1,0c0,0,0.1,0,0.8-0.5c0.5-0.4,0.9-0.7,1.1-1c0.2-0.4,0.2-0.4,0.3-0.4
		c0-0.1,0-0.2-0.1-0.2C76.2,62.1,76.1,62,76,62h0c-0.1,0-0.2,0-0.3,0.1c-0.1,0.1-0.2,0.1-0.2,0.1l0,0c-0.7,0.5-1.2,0.9-1.4,0.9l0,0
		c-0.1,0.1-0.2,0.2-0.4,0.2c0,0-0.1,0-0.1,0l0,0c-0.1,0-0.2,0.1-0.3,0.1c0,0-0.1,0-0.1,0c-0.1,0-0.1,0-0.2,0l-0.3,0
		c-0.1,0-0.2-0.1-0.4-0.2C72,63.2,72,63,72,63c0,0,0.1-0.2,0.8-0.7c0.8-0.7,1.6-1.4,2.5-2.1l0,0c0.6-0.9,0.9-1.3,0.8-1.3
		c0.2-0.4,0.4-0.7,0.5-0.9l0,0l0,0c0-0.1-0.1-0.3-0.1-0.4c-0.1-0.3-0.2-0.7-0.5-0.7c0,0-0.1,0-0.1,0c0,0-0.1,0-0.1,0
		c0,0-0.5,0-0.5,0h0l0,0c-0.6,0.2-1,0.4-1.3,0.6c-0.4,0.4-0.5,0.4-0.5,0.4l0,0l0,0c-0.1,0-0.2,0.1-0.7,0.7c-0.4,0.6-0.7,0.7-0.8,0.8
		l0,0l0,0c-0.4,0.6-0.4,0.7-0.5,0.7l0,0c0,0,0,0.1-0.2,0.4C71,60.8,71,61,71,61.2 M72.9,60c0.2-0.3,0.6-0.6,1.1-1.2
		c0.4-0.3,0.8-0.5,1-0.7c0,0.1-0.1,0.1-0.1,0.2c-0.1,0.1-0.2,0.2-0.2,0.3c-0.1,0.1-0.2,0.3-0.3,0.4c0,0.1-0.1,0.2-0.4,0.5
		c-0.2,0.2-0.4,0.4-0.5,0.6c-0.6,0.4-1.1,0.8-1.4,1C72.4,60.7,72.7,60.3,72.9,60"/>
	<path class="st1" d="M77.5,64.9L77.5,64.9L77.5,64.9c0.2,0,0.4-0.1,0.6-0.1c0.2-0.1,0.4-0.2,0.5-0.3l0.1-0.1c0,0,0-0.1,0-0.2
		L78.5,64c-0.1,0-0.1-0.2-0.1-0.4c0-0.3,0.1-0.7,0.2-1.1l0.3-0.8l0-0.1l0-0.1c0.1-0.2,0.2-0.3,0.2-0.4l0-0.3c0.4-1,1.1-1.8,1.9-2.5
		l0,0l0,0c0-0.1,0.2-0.2,0.2-0.2h0c0,0,0.1,0,0.3-0.2c0.2-0.1,0.2-0.1,0.2-0.1c0,0,0.2-0.1,0.2-0.1v0c0,0,0-0.1,0.2-0.1
		c0.1-0.1,0.2-0.1,0.3-0.1h0l0,0l0.1,0.1l-0.1,0.1l0,0.1c0,0.1,0,0.1,0.1,0.2c0,0,0,0,0,0c0,0-0.1,0.1-0.1,0.1L82.5,58l-0.1,0.2
		l0.1,0.4c0,0,0,0.1,0,0.2c0,0.3-0.2,0.6-0.4,0.9l0,0l0,0c0,0.4,0.1,0.9,0.4,0.9c0.2,0,0.4-0.1,0.9-1c0,0,0.2-0.3,0.2-0.3
		c0.1-0.2,0.1-0.2,0.1-0.3c0.2-0.1,0.2-0.2,0.2-0.3c0,0,0-0.1,0-0.1h0c0,0,0-0.4,0-0.4c0-0.1,0-0.3,0.1-0.4c0.1-0.2,0.1-0.2,0.1-0.2
		l0.1,0c0-0.4,0-0.7-0.1-0.9c0-0.1-0.1-0.1-0.3-0.3c-0.2-0.2-0.6-0.2-0.6-0.2c-0.1,0-0.2-0.1-0.3-0.1c-0.1,0-0.3,0.1-0.4,0.2l0,0
		L82,56.5l0,0.1c0,0.1-0.1,0.2-0.4,0.3c-0.2,0.1-0.4,0.2-0.4,0.3c0,0,0,0,0,0c-0.1,0-0.1,0-0.1,0.1l-0.1,0.1l-0.4,0.6
		c0,0,0,0.1-0.2,0.1l-0.1,0l0,0.1c0,0.1-0.2,0.3-0.4,0.5c-0.1,0.1-0.1,0.1-0.2,0.2c0.1-0.4,0.3-0.8,0.3-1.2l0,0l0,0
		c-0.1-0.2-0.2-0.3-0.2-0.4l-0.2,0c-0.1,0-0.1,0-0.2,0h0c-0.4,0-0.5,0-0.5,0.1l0,0.1l0,0c-0.5,2.2-0.6,2.7-0.7,2.7l0,0l0,0.3
		c-0.2,0.5-0.2,0.7-0.3,0.8l0,0.1v0c0,0-0.2,0.5-0.2,0.6c-0.1,0.2-0.1,0.3-0.1,0.5c0,0.1,0,0.3-0.1,0.5c-0.1,0.3-0.1,0.5-0.1,0.6
		v0.1c-0.1,0.1-0.2,0.2-0.2,0.3l0,0.3l0,0C77.4,64.8,77.5,64.8,77.5,64.9"/>
	<path class="st1" d="M141.5,62.8L141.5,62.8L141.5,62.8c0.2,0,0.4,0,0.6-0.1c0.2-0.1,0.4-0.2,0.5-0.3l0.1-0.1c0,0,0-0.1,0-0.2
		l-0.1-0.1c-0.1,0-0.1-0.2-0.1-0.4c0-0.3,0.1-0.7,0.2-1.1l0.3-0.8l0-0.1l0-0.1c0.1-0.2,0.2-0.3,0.2-0.4l0-0.3c0.4-1,1.1-1.8,1.9-2.5
		l0,0l0,0c0-0.1,0.2-0.2,0.2-0.2h0c0,0,0.1,0,0.3-0.2c0.2-0.1,0.2-0.1,0.2-0.1c0,0,0.2-0.1,0.2-0.1v0c0,0,0-0.1,0.2-0.1
		c0.1,0,0.2-0.1,0.3-0.1h0l0,0l0.1,0.1l-0.1,0.1l0,0.1c0,0.1,0,0.1,0.1,0.2c0,0,0,0,0,0c0,0-0.1,0.1-0.1,0.1l-0.1,0.1l-0.1,0.2
		l0.1,0.3c0,0.1,0,0.1,0,0.2c0,0.3-0.2,0.6-0.5,0.9l0,0l0,0c0,0.4,0.1,0.9,0.4,0.9c0.2,0,0.4-0.1,0.9-1c0,0,0.2-0.3,0.2-0.3
		c0.1-0.2,0.1-0.2,0.1-0.3c0.2-0.1,0.2-0.2,0.2-0.3c0,0,0-0.1,0-0.1h0c0,0,0-0.4,0-0.4c0-0.1,0-0.3,0.1-0.4c0.1-0.2,0.1-0.2,0.1-0.2
		l0,0c0-0.4,0-0.7-0.1-0.9c0-0.1-0.1-0.1-0.3-0.3c-0.2-0.2-0.6-0.2-0.6-0.2c-0.1,0-0.2-0.1-0.3-0.1c-0.1,0-0.3,0.1-0.4,0.2l0,0
		l-0.4,0.1l0,0.1c0,0.1-0.1,0.2-0.4,0.3c-0.2,0.1-0.4,0.2-0.4,0.3h0c-0.1,0-0.1,0-0.1,0.1l-0.1,0.1l-0.4,0.6c0,0,0,0.1-0.2,0.1
		l-0.1,0l0,0.1c0,0.1-0.2,0.3-0.4,0.5c-0.1,0.1-0.1,0.1-0.2,0.2c0.1-0.4,0.3-0.8,0.3-1.2l0,0l0,0c-0.1-0.2-0.2-0.3-0.2-0.4l-0.2,0
		c-0.1,0-0.1,0-0.2,0h0c-0.4,0-0.5,0-0.5,0.1l0,0.1l0,0c-0.5,2.2-0.6,2.7-0.7,2.7l0,0l0,0.3c-0.2,0.5-0.2,0.7-0.3,0.8l0,0.1
		c0,0-0.2,0.5-0.2,0.6c-0.1,0.2-0.1,0.3-0.1,0.5c0,0.1,0,0.3-0.1,0.5c-0.1,0.3-0.1,0.5-0.1,0.6v0.1c-0.1,0.1-0.2,0.2-0.2,0.3l0,0.3
		l0,0C141.4,62.8,141.5,62.8,141.5,62.8"/>
	<path class="st1" d="M102.8,64.1L102.8,64.1L102.8,64.1c0.2,0,0.4,0,0.6-0.1c0.2-0.1,0.4-0.2,0.5-0.3l0.1-0.1c0,0,0-0.1,0-0.2
		l-0.1-0.1c-0.1,0-0.1-0.2-0.1-0.4c0-0.3,0.1-0.7,0.2-1.1l0.3-0.8l0-0.1l0-0.1c0.1-0.2,0.2-0.3,0.2-0.4l0-0.3c0.4-1,1.1-1.8,1.9-2.5
		l0,0l0,0c0-0.1,0.2-0.2,0.2-0.2h0c0,0,0.1,0,0.3-0.2c0.2-0.1,0.2-0.1,0.2-0.1c0,0,0.2-0.1,0.2-0.1v0c0,0,0-0.1,0.2-0.1
		c0.1,0,0.2-0.1,0.3-0.1h0l0,0l0.1,0.1l-0.1,0.1l0,0.1c0,0.1,0,0.1,0.1,0.2c0,0,0,0,0,0c0,0-0.1,0.1-0.1,0.1l-0.1,0.1l-0.1,0.2
		l0.1,0.3c0,0.1,0,0.1,0,0.2c0,0.3-0.2,0.6-0.5,0.9l0,0l0,0c0,0.4,0.1,0.9,0.4,0.9c0.2,0,0.4-0.1,0.9-1c0,0,0.2-0.2,0.2-0.3
		c0.1-0.2,0.1-0.2,0.1-0.3c0.2-0.1,0.2-0.2,0.2-0.3c0,0,0-0.1,0-0.1h0c0-0.1,0-0.4,0-0.4c0-0.1,0-0.3,0.1-0.4
		c0.1-0.2,0.1-0.2,0.1-0.2l0.1,0c0-0.4,0-0.7-0.1-0.9c0-0.1-0.1-0.1-0.3-0.3c-0.2-0.2-0.6-0.2-0.6-0.2c-0.1,0-0.2-0.1-0.3-0.1
		c-0.1,0-0.3,0.1-0.4,0.2l0,0l-0.4,0.1l0,0.1c0,0.1-0.1,0.2-0.4,0.3c-0.2,0.1-0.4,0.2-0.4,0.3c0,0,0,0,0,0c-0.1,0-0.1,0-0.1,0.1
		l-0.1,0.1l-0.4,0.6c0,0,0,0.1-0.2,0.1l-0.1,0l0,0.1c-0.1,0.1-0.2,0.3-0.4,0.5c-0.1,0.1-0.1,0.1-0.2,0.2c0.1-0.4,0.3-0.8,0.3-1.2
		l0,0l0,0c-0.1-0.2-0.2-0.3-0.2-0.4l-0.2,0c-0.1,0-0.1,0-0.2,0h0c-0.4,0-0.5,0-0.5,0.1l0,0.1l0,0c-0.5,2.2-0.6,2.7-0.7,2.7l0,0
		l0,0.3c-0.2,0.5-0.2,0.7-0.3,0.8l0,0.1c0,0-0.2,0.5-0.2,0.6c-0.1,0.2-0.1,0.3-0.1,0.5c0,0.1,0,0.3-0.1,0.5
		c-0.1,0.3-0.1,0.5-0.1,0.6v0.1c-0.1,0.1-0.2,0.2-0.2,0.3l0,0.3l0,0C102.7,64,102.8,64,102.8,64.1"/>
	<path class="st1" d="M84.2,63.9l0,0.2c0.3,0.1,0.4,0.2,0.4,0.2l0.1,0h0c0,0,0,0,0.1,0h0l0.2,0l0,0c0.1-0.1,0.2-0.1,0.3-0.1l0.1,0
		l0.5-0.3c0,0,0,0,0,0c0,0,0,0,0.1,0l0.2-0.2l0,0c0-0.4-0.3-0.8-1-1.1l-0.2,0.1c0,0,0,0,0,0l0,0c0,0-0.1,0-0.6,0.3l0,0l0,0
		c0,0,0,0,0,0.1C84,63.3,84,63.3,84,63.3C84,63.5,84,63.7,84.2,63.9C84.2,63.9,84.2,63.9,84.2,63.9"/>
	<path class="st1" d="M146.4,62.5l0,0.2c0.3,0.1,0.4,0.2,0.4,0.2l0.1,0h0c0,0,0,0,0.1,0h0l0.2,0l0,0c0.1-0.1,0.2-0.1,0.3-0.1l0.1,0
		l0.5-0.3c0,0,0,0,0,0c0,0,0,0,0.1,0l0.2-0.2l0,0c0-0.4-0.3-0.8-1-1.1l-0.2,0.1c0,0,0,0,0,0l0,0c0,0-0.1,0-0.6,0.3l0,0l0,0.1
		c0,0,0,0,0,0.1c-0.1,0.1-0.1,0.1-0.1,0.2C146.2,62.1,146.3,62.3,146.4,62.5C146.4,62.5,146.4,62.5,146.4,62.5"/>
	<path class="st1" d="M112.3,52.5L112.3,52.5l1,0.4l0.6-0.3l-0.2-0.1c0,0,0-0.1,0.1-0.1l0.1-0.1l-0.1-0.1l0,0l0,0c0,0,0,0,0-0.1
		c0-0.1,0-0.2,0-0.2l0-0.1l-0.1,0c-0.3-0.2-0.4-0.3-0.4-0.3l0,0l-0.1,0c0,0-0.1,0-0.1,0c0,0-0.1,0-0.2,0h0H113l0,0c0,0,0,0,0,0.1
		c0,0,0,0-0.1,0c-0.1,0-0.1,0-0.2,0c-0.1,0-0.4,0.1-0.4,0.4c0,0.1-0.1,0.1-0.1,0.2l0,0l0,0.3l0,0C112.2,52.4,112.3,52.5,112.3,52.5"
		/>
	<path class="st1" d="M109.4,63.1c0,0.1,0,0.3,0.1,0.3c0.1,0.1,0.2,0.1,0.4,0.1h0c0.5,0,0.6-0.3,0.6-0.5l0-0.6
		c0.1-0.2,0.2-0.4,0.2-0.6c0,0,0-0.2,0.2-0.9c0.1-0.4,0.1-0.5,0.1-0.5l0.1-0.1c0.5-1.6,0.8-2.2,0.9-2.3l0.1-0.4c0,0,0.2-0.4,0.2-0.4
		c0-0.1,0-0.2,0.2-0.5l0.2-0.4l0-0.1l-0.1-0.2c0,0,0-0.1-0.1-0.1c0.1-0.1,0.1-0.1,0.1-0.1l-0.1-0.2c0,0,0,0-0.2,0
		c-0.2,0-0.2,0-0.2,0c-0.1,0-0.1,0-0.2,0.1c-0.1,0-0.1,0.1-0.2,0.1c0,0,0,0-0.1-0.1l-0.1,0c0,0,0,0-0.1,0c-0.1,0-0.1,0-0.1,0
		l-0.4,0.2c0,0,0,0,0,0c-0.1,0.1-0.1,0.1-0.1,0.2c0,0.1,0,0.2,0.1,0.3c0,0,0,0.1,0,0.1l0,0.1l0.1,0c0,0,0,0,0,0.1c0,0.1,0,0.1,0,0.2
		c0,0.1,0,0.2,0,0.2c0,0,0,0,0,0l0.1,0.2c0,0,0,0,0,0.1c0,0.1-0.1,0.5-0.4,1.2c-0.3,0.8-0.5,1.2-0.5,1.2c-0.2,1-0.4,1.7-0.5,2.1l0,0
		l0,0c0,0,0,0.1,0,0.3c-0.1,0.3-0.1,0.4-0.1,0.4C109.5,62.7,109.4,63.1,109.4,63.1 M109.9,63.4L109.9,63.4L109.9,63.4L109.9,63.4z"
		/>
	<path class="st1" d="M120.2,62.9c0.3,0.2,0.4,0.3,0.5,0.3c0.1,0,0.3-0.1,0.4-0.2c0.2-0.1,0.3-0.3,0.3-0.4c0,0,0,0,0-0.1
		c0.2-0.5,0.4-0.9,0.5-1.3c0.3-0.5,0.5-0.9,0.6-1.1l0,0l0,0c0-0.1,0-0.4,1.5-2.3l0.1,0c0.1,0,0.1,0,0.2-0.1l0,0c0,0,0,0.2-0.2,0.4
		l0,0c-0.2,1.1-0.3,1.3-0.4,1.3l0,0.2c0,0,0,0,0,0c0,0,0,0.1-0.1,0.1l0,0v0c0,0.2,0,0.4,0,0.5c0,0.2-0.1,0.4-0.1,0.4
		c0,0-0.1,0.1-0.1,0.1v0l0,0c0,0.1,0.1,0.2,0.1,0.3c0,0,0,0.1-0.1,0.1l0.1,0.2c0,0,0,0.1,0,0.1c0,0.2,0.1,0.5,0.3,0.8
		c0,0.1,0.1,0.2,0.7,0.5c0.6,0.4,0.7,0.4,0.8,0.4h0c0.1,0,0.1,0,0.2-0.1c0.1-0.1,0.2-0.1,0.2-0.1s0,0,0,0c0.1,0,0.1,0,0.1,0l0,0
		c0.2-0.1,0.3-0.1,0.4-0.1c0,0,0,0,0,0l1.3-0.9c0.8-0.6,0.9-0.8,0.9-0.9c0-0.1,0-0.2-0.1-0.3c0,0-0.1-0.1-0.2-0.1l-0.2,0
		c-0.1,0-0.1,0-0.1,0c0,0-0.3,0.2-0.8,0.5c-0.6,0.4-0.8,0.4-0.8,0.4h0c-0.1,0-0.1,0-0.1,0l-0.2,0c0,0-0.1,0.1-0.1,0.1l-0.1,0.1h0
		c0,0-0.1,0-0.1,0l0,0h0c0,0-0.1,0-0.2,0c0,0,0,0-0.1,0c-0.4-0.2-0.4-0.3-0.4-0.3c-0.1-0.1-0.1-0.2-0.2-0.4c0-0.1,0-0.2,0-0.3
		c0,0-0.1-0.4-0.1-0.4c0,0,0-0.1,0-0.1s0,0,0-0.1c0.1-0.1,0.1-0.2,0.1-0.2l0,0l-0.1-0.1v0l0.1-0.2l0,0l0-0.1c0-0.1,0-0.1,0-0.2
		c0,0,0,0,0,0l0,0l0,0c0.1,0,0.1-0.1,0.1-0.2c0-0.1,0-0.2,0-0.2c0-0.1,0-0.1,0-0.2c0.5-1.8,0.8-2.9,1-3.4l-0.2-0.1l0,0
		c-0.1-0.1-0.3-0.3-0.5-0.4l0,0l-0.1,0l0,0c-0.5,0.3-1,0.7-1.4,1.1c-0.2,0.2-0.6,0.6-1,1.1c0.8-2.4,1.4-4,1.8-4.7l0-0.1l0,0
		c0,0,0,0,0-0.1h0c0.1-0.2,0.7-1.9,0.7-1.9l0-0.2c0.2-0.8,0.4-1.2,0.4-1.2c0-0.1,0-0.2,0-0.2c0,0,0,0-0.1,0
		c-0.2-0.3-0.5-0.4-0.8-0.4l0,0l0,0c-0.1,0.1-0.1,0.1-0.1,0.1c0,0-0.3,0.3-0.3,0.3c-0.1,0.1-0.2,0.2-0.2,0.4c0,0.1,0,0.1,0.1,0.2
		c0,0,0,0,0,0l-0.2,0.6c-0.2,0.7-0.5,1.6-0.9,2.8l-1.1,2.9l0,0l0,0c0,0-0.2,0.5-0.5,1.5c-0.2,0.8-0.4,1.4-0.6,1.6l0,0
		c-0.1,0.8-0.3,1.6-0.8,2.3l0,0.2l0,0.1c0,0,0,0.1-0.1,0.2l-0.2,0.2l0,0C119.8,62.6,119.9,62.7,120.2,62.9"/>
	<path class="st1" d="M128.1,58.9l0.3,0.1c0.1,0.1,0.2,0.2,0.3,0.2c0,0,0.1,0,0.1,0c0,0,0.1,0,0.1,0l0,0l0,0
		c0.6-0.4,1.1-0.7,1.5-0.8c-0.1,0.4-0.2,0.4-0.2,0.5l-0.1,0.1c-0.1,0.5-0.2,1.1-0.4,1.8c0,0,0,0.1-0.1,0.7c0,0.2-0.3,0.6-0.3,0.6
		s0,0,0,0c-0.1,0-0.1,0.1-0.1,0.2l0,0.1c0,0,0,0.2,0,0.3l0.1,0.1c0,0,0,0,0.1,0c0.1,0.1,0.1,0.1,0.2,0.1c0.2,0.1,0.2,0.1,0.2,0.1
		l0,0h0.1c0.1,0,0.1,0,0.3-0.1c0.1,0,0.2,0,0.2,0h0.1l0,0c0.1-0.1,0.2-0.2,0.2-0.2l0,0l0-0.1c0-0.1,0-0.2,0-0.3v0l0,0
		c0-0.1,0-0.1,0-0.2c0,0,0,0,0,0c0.1-0.1,0.1-0.1,0.1-0.2c0,0,0-0.1-0.1-0.2c0-0.1,0-0.1,0-0.2c0-0.4,0.1-0.9,0.4-1.7
		c0.2-0.7,0.4-1.3,0.4-1.6c0.1-0.1,0.3-0.2,0.5-0.3c0,0,0.1,0.1,0.1,0.1c0,0,0.1,0,0.5-0.1c0.3-0.1,0.5-0.1,0.6-0.2
		c0.2-0.1,0.8-0.3,0.9-0.2l0.1-0.1c0,0,0,0,0-0.1c0.1,0,0.3-0.1,0.4-0.2c0.2-0.1,0.3-0.1,0.3-0.1l0.1,0l0-0.1c0-0.2,0-0.3,0-0.3
		l0-0.1l-0.1,0c-0.1,0-0.3,0-0.6,0c-0.1,0-0.1,0-0.3,0.1c-0.1,0-0.2,0-0.3,0c-0.2,0-0.4,0.1-0.7,0.2c-0.3,0.1-0.5,0.1-0.6,0.2
		c0,0-0.1-0.1-0.1-0.1c0,0-0.1,0-0.2,0.1c-0.2,0-0.4,0-0.4,0c1-3.9,1.6-6.1,2-6.6c0.1-0.1,0.1-0.2,0.2-0.3c0.1-0.2,0.1-0.3,0.1-0.4
		c0,0,0-0.1-0.1-0.2c0-0.1-0.1-0.2,0-0.2l-0.1-0.1c-0.1-0.1-0.3-0.1-0.4-0.2c-0.1-0.1-0.3-0.1-0.4-0.1h-0.1c-0.1,0-0.2,0.1-0.4,0.2
		l-0.1,0.1c-0.1,0.1-0.3,0.4-0.3,0.5c0,0.1-0.1,0.2-0.1,0.3l0,0.1l0,0.1l0.1,0.2c0,0.1-0.1,0.1-0.1,0.2c0,0,0,0.1,0,0.1
		c-0.1,0.6-0.2,1.2-0.4,1.7l-0.4,1.4c-0.2,0.8-0.3,1.3-0.5,1.5l0,0v0c0,0.5-0.1,0.7-0.2,0.8l0,0.2c0,0,0,0.1,0,0.1
		c0,0,0,0.1,0.1,0.1c0,0.1-0.1,0.2-0.1,0.3c0,0.2-0.1,0.3-0.2,0.3c-0.1,0.1-0.2,0.1-0.3,0.1c0,0-0.1,0-0.1,0h0c0,0-0.1,0-0.1,0.1
		c0,0,0,0,0,0l0,0l-0.2,0.1c-0.2,0.1-0.4,0.2-0.4,0.2c-0.5,0.2-0.9,0.3-1,0.4c-0.3,0.1-0.4,0.3-0.5,0.6c0,0.1,0,0.1,0.1,0.4
		C128.2,58.9,128.1,58.9,128.1,58.9"/>
	<path class="st1" d="M134.8,59.2c-0.2,0.4-0.3,0.6-0.3,0.8l0,0.4c0,0.1-0.1,0.1-0.1,0.2c0,0,0,0.1,0.1,0.2c0,0.1,0,0.3,0,0.4
		c0.1,0.2,0.2,0.4,0.3,0.5c0,0,1,0.8,1.4,1c0.1,0,0.1,0.1,0.2,0.1c0,0,0.1,0,0.1,0c0.5-0.1,0.9-0.2,1-0.2c0.1,0,0.1,0,0.3-0.1
		c0.1-0.1,0.2-0.1,0.2-0.1s0,0,0.1,0c0.1,0,0.1,0,0.1,0c0.1,0,0.1,0,0.8-0.5c0.5-0.4,0.9-0.8,1.1-1c0.2-0.4,0.2-0.4,0.2-0.4
		c0-0.1,0-0.2-0.1-0.2c-0.1-0.1-0.2-0.1-0.3-0.1h0c-0.1,0-0.2,0-0.3,0.1c-0.1,0.1-0.2,0.1-0.2,0.1l0,0c-0.7,0.5-1.2,0.9-1.4,0.9l0,0
		c-0.1,0.1-0.2,0.2-0.4,0.2l0,0c0,0-0.1,0-0.1,0l0,0c-0.1,0-0.2,0.1-0.3,0.1c0,0-0.1,0-0.1,0c-0.1,0-0.1,0-0.2,0l-0.3,0
		c-0.1,0-0.2-0.1-0.4-0.2c-0.1-0.1-0.2-0.2-0.2-0.3c0,0,0.1-0.2,0.8-0.7c0.8-0.7,1.6-1.4,2.5-2.1l0,0c0.6-0.9,0.8-1,0.8-1.1l0-0.2
		c0,0,0,0,0,0c0.2-0.4,0.4-0.7,0.5-0.9l0,0l0,0c0-0.1-0.1-0.3-0.1-0.4c-0.1-0.3-0.2-0.7-0.5-0.7c0,0-0.1,0-0.1,0c0,0-0.1,0-0.1,0
		c0,0-0.5,0-0.5,0h0l0,0l0,0c-0.6,0.2-1,0.4-1.3,0.6c-0.4,0.4-0.5,0.4-0.5,0.4l0,0l0,0c-0.1,0-0.1,0.1-0.7,0.7
		c-0.4,0.6-0.7,0.7-0.8,0.8l0,0l0,0c-0.4,0.6-0.5,0.7-0.5,0.7l0,0c0,0,0,0.1-0.2,0.4C134.9,58.9,134.8,59,134.8,59.2 M136.8,58
		c0.2-0.2,0.6-0.6,1.1-1.2c0.4-0.3,0.8-0.5,1-0.7c0,0.1-0.1,0.1-0.1,0.2c-0.1,0.1-0.2,0.2-0.2,0.3c-0.1,0.1-0.2,0.3-0.3,0.4
		c0,0.1-0.1,0.2-0.4,0.5c-0.2,0.2-0.4,0.4-0.5,0.6c-0.6,0.4-1.1,0.8-1.4,1C136.3,58.7,136.5,58.4,136.8,58"/>
	<path class="st1" d="M143.2,66.7c-9.5,0.7-19,1.1-28.5,1.4c0-0.1,0.1-0.2,0.1-0.3l0.4-0.8c0,0,0.1-0.2,0.2-0.3l0-0.1
		c0-0.1,0.1-0.4,0.1-0.5c0.1-0.1,0.2-0.3,0.3-0.4l0.1-0.3c0.1-0.2,0.1-0.4,0.2-0.5c0-0.1,0.1-0.2,0.1-0.3l0-0.1c0,0,0,0,0,0
		c0.1-0.1,0.3-0.5,0.6-1.7c0.3-1,0.5-1.6,0.5-1.8c0.2-1.2,0.7-2.3,1.4-3.3l0,0c0.2-0.7,0.3-1,0.4-1l0-0.1c0-0.1,0-0.1,0-0.2
		c0.3-0.4,0.2-0.7,0.2-0.7l0,0c-0.2-0.3-0.7-0.7-0.8-0.7c0,0-0.1,0-0.1,0c-0.1,0-0.1-0.1-0.2-0.1l-0.3,0.1c0,0-1.1,0.5-1.3,0.6l0,0
		c-0.1,0.1-0.3,0.3-0.5,0.6c-0.2,0.2-0.3,0.3-0.5,0.4l0,0c-1,1.3-1.3,1.6-1.4,1.6l0,0l0,0c-0.1,0.3-0.2,0.4-0.2,0.5
		c-0.5,0.6-0.8,1-0.9,1.2c-0.2,0.4-0.4,0.7-0.4,0.9l0,0l0,0c0,0,0,0.1-0.1,0.3c0,0,0,0.4-0.1,0.5c-0.1,0.3-0.1,0.4-0.1,0.4l0,0l0,0
		c0.5,0.6,1,1,1.6,1v0l0.1,0l0.1,0c0,0,0,0,0.2-0.1c0.4-0.3,0.7-0.5,1-0.7c0.2-0.1,0.3-0.2,0.4-0.3c-0.2,0.5-0.2,0.6-0.2,0.7
		c0,0-0.1,0.5-0.2,0.6l0,0v0c0,0.1-0.1,0.6-0.5,1.9c-0.1,0.4-0.2,0.6-0.3,0.8c0,0-0.2,0.2-0.2,0.3c-0.1,0.1-0.2,0.2-0.4,0.6
		c-0.2,0.6-0.4,0.9-0.4,0.9c0,0,0,0,0,0c-0.1,0.1-0.1,0.1-0.1,0.2c0,0.1-0.1,0.1-0.1,0.1l-0.1,0.1c-2.2,0.1-4.3,0.1-6.5,0.2
		c0.1-0.4,0.3-1.2,0.3-1.2c0.1-0.2,0.1-0.4,0.1-0.4l0-0.1c0-0.1,0-0.1,0-0.2c0.2-0.3,0.3-0.5,0.5-0.7c0.1-0.1,0.2-0.4,0.2-0.4
		c-0.1-0.3-0.3-0.4-0.4-0.4c-0.2,0-0.4,0.1-0.5,0.3c-0.3,0.8-0.5,0.8-0.5,0.9l-0.1,0l0,0.1c-0.1,0.3-0.1,0.4-0.1,0.4
		s-0.1,0.3-0.1,0.4c0,0.1,0,0.2-0.2,0.6c-0.1,0.2-0.2,0.4-0.2,0.6c-22.7,0.6-43.5,0.5-66.2,1.5c-0.7,0-2.8,1.1-1.1,1
		c23-1,44.2-0.9,67.2-1.5l0,0.2l0,0.1c0,0,0.4,1.3,1,2l0,0c0.1,0,0.1,0.1,0.1,0.1l0.2,0.1c0,0,0.1,0,0.3,0.2
		c0.3,0.2,0.4,0.3,0.5,0.3c0.3,0.1,0.5,0.2,0.6,0.2c0.2,0,0.3,0.1,0.3,0.1l0,0l0.6,0c0.7,0,0.8-0.1,0.8-0.1c0.5-0.2,1-0.4,1.3-0.6
		l0,0l0,0c0.1-0.2,0.2-0.2,0.2-0.3c0.1,0,0.2-0.1,0.3-0.2l0,0c0,0,0,0,0.1,0h0l0.2-0.2c0.1-0.3,0.2-0.3,0.2-0.3
		c0.3-0.2,0.6-0.6,1-1.2l0.1-0.1l0,0c0,0,0.1-0.1,0.1-0.1c0.1-0.1,0.1-0.2,0.1-0.2c0.1-0.1,0.1-0.1,0.2-0.1
		c9.3-0.3,18.6-0.7,27.9-1.4C142.7,67.7,144.9,66.6,143.2,66.7 M115.9,60.4c0,0-0.2,0.2-0.2,0.2c0,0.1-0.6,0.6-0.6,0.7
		c0,0-0.4,0.3-0.4,0.4c-0.1,0-0.2,0.1-0.4,0.2c0,0-0.1,0-0.1,0c0,0-0.1,0-0.1,0c-0.1,0-0.1,0-0.2,0c0,0-0.1-0.1-0.1-0.3
		c0-0.6,0.5-1.4,1.4-2.6c0.7-0.9,1.3-1.5,1.7-1.9c0.1,0.1,0.1,0.2,0.1,0.2c0,0.1-0.1,0.3-0.1,0.6c-0.4,1.4-0.5,1.6-0.6,1.7
		c0,0-0.1,0.1-0.1,0.2c0,0.1-0.1,0.1-0.1,0.1l0,0l0,0C116.1,60.2,116,60.3,115.9,60.4 M112.7,69.3L112.7,69.3
		c-0.2,0.4-0.5,0.7-1,1.1c-0.3,0.3-0.5,0.4-0.7,0.5c-0.3,0.1-0.5,0.2-0.8,0.3c-0.3,0.1-0.4,0.1-0.4,0.1s0,0-0.1,0
		c-0.1,0-0.1-0.1-0.2-0.1c-0.1,0-0.1,0-0.2,0.1c0,0,0,0,0,0c0,0-0.1,0-0.1,0c-0.1,0-0.2,0-0.3,0c-0.1,0-0.1,0-0.2-0.1l0,0l-0.1,0
		c0,0-0.1,0-0.1,0l-0.1,0c0,0-0.2-0.1-0.8-0.6c-0.1-0.2-0.2-0.3-0.2-0.5l0,0l-0.3-0.6c0-0.1-0.1-0.2-0.1-0.3
		c1.9-0.1,3.9-0.1,5.8-0.2C112.8,69.2,112.7,69.2,112.7,69.3"/>
	<path class="st1" d="M91.6,65L91.6,65c0.1,0,0.1,0,0.2-0.1l0,0c0,0,0.1,0.1,0.1,0.1c0,0,0.1,0,0.2,0c0.1,0,0.1,0,0.2,0l0.1,0l0-0.1
		c0-0.1,0.1-0.4,1-0.8c0.5-0.3,1.1-0.5,1.6-0.9c3-2,4.8-3.2,5.6-3.7l0,0c1-1.2,1.4-1.7,1.4-1.7c0.6-0.8,0.9-1.4,0.9-1.9
		c0-0.3-0.1-0.6-0.4-0.9c-0.3-0.3-0.6-0.4-0.9-0.4h0c0,0-0.1,0-0.1,0l0,0c0,0-0.1,0-0.2,0c-0.1,0-0.2,0-0.3-0.1h0c0,0-0.1,0-0.2,0
		c-0.1,0-0.1,0-0.1,0c0,0-0.1,0-0.2,0c-0.1,0-0.2,0-0.2,0c-0.1,0-0.5,0.1-1.2,0.2c-0.3,0.1-0.5,0.1-0.6,0.1c0,0-0.1,0-0.1,0
		c-0.1,0-0.2,0-0.3,0.1c0.1-0.1,0.4-0.3,0.7-0.6c0.5-0.4,0.9-0.6,1.2-0.7l0,0c0.5-0.5,0.9-0.9,1.2-1.1c1.1-1,1.2-1.3,1.2-1.5
		c0-0.2-0.2-0.4-0.5-0.5c-0.3-0.1-0.6-0.2-0.7-0.2h0c-0.1,0-0.1,0-0.2,0c-0.1,0-0.2,0-0.2,0l-1.5,0c0,0-0.1,0-0.2,0
		c-0.1,0-0.1,0-0.1,0s0,0,0,0c-0.1,0-0.1,0-0.2,0c-0.3,0-0.9,0.1-2,0.3c-0.8,0.1-1,0.2-1.2,0.2c-0.1,0-0.1,0-0.2,0h0l0,0
		c-0.1,0.1-0.3,0.1-0.6,0.2c-0.4,0.1-0.6,0.2-0.7,0.2c0,0,0,0-0.1,0c-0.1,0-0.1,0-0.2,0h0c-0.1,0-0.1,0-0.2,0.1c-0.1,0-0.2,0-0.2,0
		h0l0,0c-0.2,0.1-0.3,0.2-0.4,0.3h0c-0.1,0-0.1,0-0.1,0c-0.1,0-0.1,0.1-0.1,0.3c0,0,0,0.1,0.2,0.4c0.2,0.2,0.2,0.3,0.2,0.4l0,0.1
		l0.1,0c0,0,0.1,0,0.1,0c0.1,0,0.1,0,0.2,0h0c0.4,0,0.8-0.2,1.3-0.5c0,0,0.1,0,0.1-0.1c0,0,0,0,0,0l0,0l0,0c0.2-0.1,0.3-0.2,0.4-0.2
		c0,0,0.1,0,0.1,0c0,0,0.1,0,0.1,0c0,0.3,0,0.4,0,0.5l-2.7,8.6l0,0.7l0,0c0,0,0,0,0,0c-0.1,0.1-0.2,0.2-0.3,0.3l0,0l0,0
		c0,0.1,0,0.2,0.1,0.3c0,0.1,0,0.2,0,0.3c0,0.3-0.1,0.4-0.1,0.4c-0.2,0.1-0.4,0.2-0.5,0.2c-0.1,0-0.2,0.1-0.6,0.3
		c-0.4,0.3-0.5,0.4-0.5,0.5c0,0.1,0,0.3,0.2,0.4C91.4,64.9,91.5,65,91.6,65 M96.4,54.3c0.1-0.2,0.1-0.3,0.1-0.4
		c0.2-0.2,0.3-0.5,0.4-0.8c0.1-0.4,0.1-0.6,0.2-0.7c0.1,0,0.2-0.1,0.3-0.3c0.1-0.2,0.2-0.4,0.2-0.5c0,0,0,0,0,0
		c0.8-0.2,1.3-0.3,1.4-0.3c0,0,0.1,0,0.2-0.1c0.1,0,0.1,0,0.1,0l0-0.1V51c0,0,0.1,0,0.2,0c0.1,0,0.2,0,0.2,0h0c0.1,0,0.2,0,0.2,0h0
		c0.1,0,0.1,0,0.2,0h0h0c0,0,0.1,0,0.1,0l0.1,0c0,0,0,0,0.1,0c-0.5,0.7-1.2,1.4-2.2,2c-0.2,0.1-0.6,0.4-1.2,0.9
		c-0.5,0.4-0.7,0.5-0.9,0.6C96.3,54.5,96.3,54.4,96.4,54.3 M94.5,59.5c0.3-0.5,0.6-1.4,0.9-2.6c0,0,0.1,0,0.3-0.1
		c0.2-0.1,0.4-0.2,0.5-0.3c0.1,0,0.3-0.1,1.1-0.5c1.4-0.4,2.2-0.7,2.4-0.7c0,0,0.1,0.1,0.1,0.1c0.1,0,0.1,0,0.2,0c0.1,0,0.2,0,0.2,0
		c0,0,0.1,0,0.1,0c0.1,0,0.1,0,0.2,0h0l0.2,0c0.1,0,0.3,0.1,0.5,0.2c0.2,0.1,0.3,0.3,0.3,0.4c0,0.4-0.4,1.2-2.3,3.2l-2.2,1.6
		c-0.8,0.6-1.6,1.1-2.5,1.6v0L94.6,62c0-0.1-0.1-0.2-0.1-0.4c0-0.4,0-0.7,0-0.9l0-0.1c0-0.1,0-0.1,0-0.2c0,0,0-0.1,0-0.1
		c0-0.1,0.1-0.1,0.1-0.3l0,0L94.5,59.5z"/>
</g>
</svg>
